<?xml version="1.0" encoding="UTF-8" standalone="no"?>
<!-- Created with Inkscape (http://www.inkscape.org/) -->

<svg
   xmlns:dc="http://purl.org/dc/elements/1.1/"
   xmlns:cc="http://creativecommons.org/ns#"
   xmlns:rdf="http://www.w3.org/1999/02/22-rdf-syntax-ns#"
   xmlns:svg="http://www.w3.org/2000/svg"
   xmlns="http://www.w3.org/2000/svg"
   xmlns:sodipodi="http://sodipodi.sourceforge.net/DTD/sodipodi-0.dtd"
   xmlns:inkscape="http://www.inkscape.org/namespaces/inkscape"
   width="400"
   height="400"
   viewBox="0 0 105.83333 105.83334"
   version="1.1"
   id="svg954"
   inkscape:version="0.92.3 (2405546, 2018-03-11)"
   sodipodi:docname="bg_pattern.svg">
  <defs
     id="defs948" />
  <sodipodi:namedview
     id="base"
     pagecolor="#ffffff"
     bordercolor="#666666"
     borderopacity="1.0"
     inkscape:pageopacity="0.0"
     inkscape:pageshadow="2"
     inkscape:zoom="1.4"
     inkscape:cx="-9.7963786"
     inkscape:cy="141.71045"
     inkscape:document-units="mm"
     inkscape:current-layer="layer1"
     showgrid="false"
     inkscape:window-width="1920"
     inkscape:window-height="1017"
     inkscape:window-x="-8"
     inkscape:window-y="-8"
     inkscape:window-maximized="1"
     units="px"
     inkscape:snap-bbox="true"
     inkscape:bbox-paths="true"
     inkscape:bbox-nodes="true"
     inkscape:snap-bbox-edge-midpoints="true"
     inkscape:snap-global="false" />
  <metadata
     id="metadata951">
    <rdf:RDF>
      <cc:Work
         rdf:about="">
        <dc:format>image/svg+xml</dc:format>
        <dc:type
           rdf:resource="http://purl.org/dc/dcmitype/StillImage" />
        <dc:title />
      </cc:Work>
    </rdf:RDF>
  </metadata>
  <g
     inkscape:label="Layer 1"
     inkscape:groupmode="layer"
     id="layer1"
     transform="translate(0,-191.16664)">
    <rect
       style="fill:#593196;fill-opacity:1;stroke:none;stroke-width:0.54828322;stroke-linejoin:round;stroke-miterlimit:4;stroke-dasharray:6.57939884, 0.54828324;stroke-dashoffset:0;stroke-opacity:1"
       id="rect900"
       width="106.09925"
       height="106.09925"
       x="-106.09925"
       y="190.90073"
       ry="0"
       transform="scale(-1,1)" />
    <g
       id="g918"
       transform="matrix(0.43824903,0,0,0.43824903,-24.372775,196.30829)"
       style="stroke:#68469d;stroke-width:1.59726536;stroke-miterlimit:4;stroke-dasharray:none;stroke-opacity:1">
      <path
         id="path904"
         transform="scale(0.26458333)"
         d="m 367.79883,474.49609 c -12.44212,10.00022 -25.63725,17.48585 -39.6836,22.1543 -12.28022,4.08144 -25.20422,5.19221 -38.90039,12.34961 -11.07237,5.78623 -18.31548,21.6366 -14.95312,33.32422 6.81705,23.69616 25.21652,31.10662 45.29687,27.31836 38.10836,-7.18938 63.93748,-31.41294 86.41602,-63.875 -0.84384,-1.83852 -1.08033,-4.39764 -1.1582,-7.14453 -6.70976,6.628 -13.21046,13.47337 -25.35352,14.40234 4.77286,-2.98991 10.1961,-5.34459 11.51172,-11.71094 -9.58492,4.41449 -16.9734,1.89968 -24.23438,-1.01562 4.05012,-2.50349 14.68997,4.3586 17.9336,-6.72656 1.04179,-3.56032 1.0376,-7.74468 -1.07617,-13.32618 l -9.6543,-2.83593 c -2.39075,-0.70259 -4.42447,-1.7086 -6.14453,-2.91407 z"
         style="fill:none;fill-opacity:1;stroke:#68469d;stroke-width:6.03690863;stroke-linecap:butt;stroke-linejoin:round;stroke-miterlimit:4;stroke-dasharray:none;stroke-opacity:1"
         inkscape:connector-curvature="0" />
      <path
         sodipodi:nodetypes="ccccscscccccssscc"
         inkscape:connector-curvature="0"
         id="path906"
         d="m 109.19548,114.68432 c -1.12177,2.71878 -1.90461,5.57445 -5.08326,7.46246 -2.45878,-0.0625 -2.79328,0.50657 -3.56832,0.94468 -1.878624,1.43836 -3.743861,0.15673 -5.09736,-0.58869 0.18662,1.56254 1.285368,3.16327 3.492755,3.81197 l 2.554075,0.7506 c 0.55927,1.47677 0.5607,2.58342 0.28506,3.52542 -0.85821,2.93295 -3.673258,1.11758 -4.744851,1.77996 1.921133,0.77134 3.875781,1.43694 6.411791,0.26894 -0.34809,1.68443 -1.78317,2.30728 -3.04599,3.09836 3.21285,-0.24579 4.93303,-2.05727 6.70832,-3.81093 0.0375,1.32271 0.2099,2.48544 1.24783,2.6217 -0.45034,-1.71325 0.40467,-3.5873 0.7659,-5.54562 0,0 0.0178,-1.72298 -0.27305,-2.51154 -0.30848,-0.83643 -0.57439,-2.96447 0.84895,-5.38435 0.9916,-1.6859 0.75252,-5.81924 0.75252,-5.81924 -0.33058,-0.33029 -0.71249,-0.58495 -1.25438,-0.60371 z"
         style="fill:none;fill-opacity:1;stroke:#68469d;stroke-width:1.59726536;stroke-linecap:butt;stroke-linejoin:round;stroke-miterlimit:4;stroke-dasharray:none;stroke-opacity:1" />
    </g>
    <g
       id="g924"
       transform="matrix(-0.26707296,-0.05203331,-0.05203331,0.26707296,63.345509,247.32143)"
       style="stroke-width:2.57263536;stroke-miterlimit:4;stroke-dasharray:none;stroke:#68469d;stroke-opacity:1">
      <path
         style="fill:none;fill-opacity:1;stroke:#68469d;stroke-width:9.72334636;stroke-linecap:butt;stroke-linejoin:round;stroke-miterlimit:4;stroke-dasharray:none;stroke-opacity:1"
         d="m 367.79883,474.49609 c -12.44212,10.00022 -25.63725,17.48585 -39.6836,22.1543 -12.28022,4.08144 -25.20422,5.19221 -38.90039,12.34961 -11.07237,5.78623 -18.31548,21.6366 -14.95312,33.32422 6.81705,23.69616 25.21652,31.10662 45.29687,27.31836 38.10836,-7.18938 63.93748,-31.41294 86.41602,-63.875 -0.84384,-1.83852 -1.08033,-4.39764 -1.1582,-7.14453 -6.70976,6.628 -13.21046,13.47337 -25.35352,14.40234 4.77286,-2.98991 10.1961,-5.34459 11.51172,-11.71094 -9.58492,4.41449 -16.9734,1.89968 -24.23438,-1.01562 4.05012,-2.50349 14.68997,4.3586 17.9336,-6.72656 1.04179,-3.56032 1.0376,-7.74468 -1.07617,-13.32618 l -9.6543,-2.83593 c -2.39075,-0.70259 -4.42447,-1.7086 -6.14453,-2.91407 z"
         transform="scale(0.26458333)"
         id="path920"
         inkscape:connector-curvature="0" />
      <path
         style="fill:none;fill-opacity:1;stroke:#68469d;stroke-width:2.57263536;stroke-linecap:butt;stroke-linejoin:round;stroke-miterlimit:4;stroke-dasharray:none;stroke-opacity:1"
         d="m 109.19548,114.68432 c -1.12177,2.71878 -1.90461,5.57445 -5.08326,7.46246 -2.45878,-0.0625 -2.79328,0.50657 -3.56832,0.94468 -1.878624,1.43836 -3.743861,0.15673 -5.09736,-0.58869 0.18662,1.56254 1.285368,3.16327 3.492755,3.81197 l 2.554075,0.7506 c 0.55927,1.47677 0.5607,2.58342 0.28506,3.52542 -0.85821,2.93295 -3.673258,1.11758 -4.744851,1.77996 1.921133,0.77134 3.875781,1.43694 6.411791,0.26894 -0.34809,1.68443 -1.78317,2.30728 -3.04599,3.09836 3.21285,-0.24579 4.93303,-2.05727 6.70832,-3.81093 0.0375,1.32271 0.2099,2.48544 1.24783,2.6217 -0.45034,-1.71325 0.40467,-3.5873 0.7659,-5.54562 0,0 0.0178,-1.72298 -0.27305,-2.51154 -0.30848,-0.83643 -0.57439,-2.96447 0.84895,-5.38435 0.9916,-1.6859 0.75252,-5.81924 0.75252,-5.81924 -0.33058,-0.33029 -0.71249,-0.58495 -1.25438,-0.60371 z"
         id="path922"
         inkscape:connector-curvature="0"
         sodipodi:nodetypes="ccccscscccccssscc" />
    </g>
    <g
       transform="matrix(0.38908911,0,0,0.38908911,7.9756462,237.94786)"
       id="g930"
       style="stroke-width:1.79907374;stroke-miterlimit:4;stroke-dasharray:none;stroke:#68469d;stroke-opacity:1">
      <path
         inkscape:connector-curvature="0"
         id="path926"
         transform="scale(0.26458333)"
         d="m 367.79883,474.49609 c -12.44212,10.00022 -25.63725,17.48585 -39.6836,22.1543 -12.28022,4.08144 -25.20422,5.19221 -38.90039,12.34961 -11.07237,5.78623 -18.31548,21.6366 -14.95312,33.32422 6.81705,23.69616 25.21652,31.10662 45.29687,27.31836 38.10836,-7.18938 63.93748,-31.41294 86.41602,-63.875 -0.84384,-1.83852 -1.08033,-4.39764 -1.1582,-7.14453 -6.70976,6.628 -13.21046,13.47337 -25.35352,14.40234 4.77286,-2.98991 10.1961,-5.34459 11.51172,-11.71094 -9.58492,4.41449 -16.9734,1.89968 -24.23438,-1.01562 4.05012,-2.50349 14.68997,4.3586 17.9336,-6.72656 1.04179,-3.56032 1.0376,-7.74468 -1.07617,-13.32618 l -9.6543,-2.83593 c -2.39075,-0.70259 -4.42447,-1.7086 -6.14453,-2.91407 z"
         style="fill:none;fill-opacity:1;stroke:#68469d;stroke-width:6.79964886;stroke-linecap:butt;stroke-linejoin:round;stroke-miterlimit:4;stroke-dasharray:none;stroke-opacity:1" />
      <path
         sodipodi:nodetypes="ccccscscccccssscc"
         inkscape:connector-curvature="0"
         id="path928"
         d="m 109.19548,114.68432 c -1.12177,2.71878 -1.90461,5.57445 -5.08326,7.46246 -2.45878,-0.0625 -2.79328,0.50657 -3.56832,0.94468 -1.878624,1.43836 -3.743861,0.15673 -5.09736,-0.58869 0.18662,1.56254 1.285368,3.16327 3.492755,3.81197 l 2.554075,0.7506 c 0.55927,1.47677 0.5607,2.58342 0.28506,3.52542 -0.85821,2.93295 -3.673258,1.11758 -4.744851,1.77996 1.921133,0.77134 3.875781,1.43694 6.411791,0.26894 -0.34809,1.68443 -1.78317,2.30728 -3.04599,3.09836 3.21285,-0.24579 4.93303,-2.05727 6.70832,-3.81093 0.0375,1.32271 0.2099,2.48544 1.24783,2.6217 -0.45034,-1.71325 0.40467,-3.5873 0.7659,-5.54562 0,0 0.0178,-1.72298 -0.27305,-2.51154 -0.30848,-0.83643 -0.57439,-2.96447 0.84895,-5.38435 0.9916,-1.6859 0.75252,-5.81924 0.75252,-5.81924 -0.33058,-0.33029 -0.71249,-0.58495 -1.25438,-0.60371 z"
         style="fill:none;fill-opacity:1;stroke:#68469d;stroke-width:1.79907374;stroke-linecap:butt;stroke-linejoin:round;stroke-miterlimit:4;stroke-dasharray:none;stroke-opacity:1" />
    </g>
    <g
       id="g936"
       transform="matrix(-0.09678541,0.37685928,0.37685928,0.09678541,-28.029637,234.89414)"
       style="stroke-width:1.79907376;stroke-miterlimit:4;stroke-dasharray:none;stroke:#68469d;stroke-opacity:1">
      <path
         style="fill:none;fill-opacity:1;stroke:#68469d;stroke-width:6.79964893;stroke-linecap:butt;stroke-linejoin:round;stroke-miterlimit:4;stroke-dasharray:none;stroke-opacity:1"
         d="m 367.79883,474.49609 c -12.44212,10.00022 -25.63725,17.48585 -39.6836,22.1543 -12.28022,4.08144 -25.20422,5.19221 -38.90039,12.34961 -11.07237,5.78623 -18.31548,21.6366 -14.95312,33.32422 6.81705,23.69616 25.21652,31.10662 45.29687,27.31836 38.10836,-7.18938 63.93748,-31.41294 86.41602,-63.875 -0.84384,-1.83852 -1.08033,-4.39764 -1.1582,-7.14453 -6.70976,6.628 -13.21046,13.47337 -25.35352,14.40234 4.77286,-2.98991 10.1961,-5.34459 11.51172,-11.71094 -9.58492,4.41449 -16.9734,1.89968 -24.23438,-1.01562 4.05012,-2.50349 14.68997,4.3586 17.9336,-6.72656 1.04179,-3.56032 1.0376,-7.74468 -1.07617,-13.32618 l -9.6543,-2.83593 c -2.39075,-0.70259 -4.42447,-1.7086 -6.14453,-2.91407 z"
         transform="scale(0.26458333)"
         id="path932"
         inkscape:connector-curvature="0" />
      <path
         style="fill:none;fill-opacity:1;stroke:#68469d;stroke-width:1.79907376;stroke-linecap:butt;stroke-linejoin:round;stroke-miterlimit:4;stroke-dasharray:none;stroke-opacity:1"
         d="m 109.19548,114.68432 c -1.12177,2.71878 -1.90461,5.57445 -5.08326,7.46246 -2.45878,-0.0625 -2.79328,0.50657 -3.56832,0.94468 -1.878624,1.43836 -3.743861,0.15673 -5.09736,-0.58869 0.18662,1.56254 1.285368,3.16327 3.492755,3.81197 l 2.554075,0.7506 c 0.55927,1.47677 0.5607,2.58342 0.28506,3.52542 -0.85821,2.93295 -3.673258,1.11758 -4.744851,1.77996 1.921133,0.77134 3.875781,1.43694 6.411791,0.26894 -0.34809,1.68443 -1.78317,2.30728 -3.04599,3.09836 3.21285,-0.24579 4.93303,-2.05727 6.70832,-3.81093 0.0375,1.32271 0.2099,2.48544 1.24783,2.6217 -0.45034,-1.71325 0.40467,-3.5873 0.7659,-5.54562 0,0 0.0178,-1.72298 -0.27305,-2.51154 -0.30848,-0.83643 -0.57439,-2.96447 0.84895,-5.38435 0.9916,-1.6859 0.75252,-5.81924 0.75252,-5.81924 -0.33058,-0.33029 -0.71249,-0.58495 -1.25438,-0.60371 z"
         id="path934"
         inkscape:connector-curvature="0"
         sodipodi:nodetypes="ccccscscccccssscc" />
    </g>
    <g
       transform="matrix(0.22981681,0.31396587,-0.31396587,0.22981681,65.292171,205.44917)"
       id="g942"
       style="stroke-width:1.79907375;stroke-miterlimit:4;stroke-dasharray:none;stroke:#68469d;stroke-opacity:1">
      <g
         id="g946"
         transform="matrix(0.70726539,-0.70694814,-0.70694814,-0.70726539,121.9078,294.40485)"
         style="stroke-width:1.79907375;stroke-miterlimit:4;stroke-dasharray:none;stroke:#68469d;stroke-opacity:1">
        <path
           style="fill:none;fill-opacity:1;stroke:#68469d;stroke-width:6.79964889;stroke-linecap:butt;stroke-linejoin:round;stroke-miterlimit:4;stroke-dasharray:none;stroke-opacity:1"
           d="m 367.79883,474.49609 c -12.44212,10.00022 -25.63725,17.48585 -39.6836,22.1543 -12.28022,4.08144 -25.20422,5.19221 -38.90039,12.34961 -11.07237,5.78623 -18.31548,21.6366 -14.95312,33.32422 6.81705,23.69616 25.21652,31.10662 45.29687,27.31836 38.10836,-7.18938 63.93748,-31.41294 86.41602,-63.875 -0.84384,-1.83852 -1.08033,-4.39764 -1.1582,-7.14453 -6.70976,6.628 -13.21046,13.47337 -25.35352,14.40234 4.77286,-2.98991 10.1961,-5.34459 11.51172,-11.71094 -9.58492,4.41449 -16.9734,1.89968 -24.23438,-1.01562 4.05012,-2.50349 14.68997,4.3586 17.9336,-6.72656 1.04179,-3.56032 1.0376,-7.74468 -1.07617,-13.32618 l -9.6543,-2.83593 c -2.39075,-0.70259 -4.42447,-1.7086 -6.14453,-2.91407 z"
           transform="scale(0.26458333)"
           id="path938"
           inkscape:connector-curvature="0" />
        <path
           style="fill:none;fill-opacity:1;stroke:#68469d;stroke-width:1.79907375;stroke-linecap:butt;stroke-linejoin:round;stroke-miterlimit:4;stroke-dasharray:none;stroke-opacity:1"
           d="m 109.19548,114.68432 c -1.12177,2.71878 -1.90461,5.57445 -5.08326,7.46246 -2.45878,-0.0625 -2.79328,0.50657 -3.56832,0.94468 -1.878624,1.43836 -3.743861,0.15673 -5.09736,-0.58869 0.18662,1.56254 1.285368,3.16327 3.492755,3.81197 l 2.554075,0.7506 c 0.55927,1.47677 0.5607,2.58342 0.28506,3.52542 -0.85821,2.93295 -3.673258,1.11758 -4.744851,1.77996 1.921133,0.77134 3.875781,1.43694 6.411791,0.26894 -0.34809,1.68443 -1.78317,2.30728 -3.04599,3.09836 3.21285,-0.24579 4.93303,-2.05727 6.70832,-3.81093 0.0375,1.32271 0.2099,2.48544 1.24783,2.6217 -0.45034,-1.71325 0.40467,-3.5873 0.7659,-5.54562 0,0 0.0178,-1.72298 -0.27305,-2.51154 -0.30848,-0.83643 -0.57439,-2.96447 0.84895,-5.38435 0.9916,-1.6859 0.75252,-5.81924 0.75252,-5.81924 -0.33058,-0.33029 -0.71249,-0.58495 -1.25438,-0.60371 z"
           id="path940"
           inkscape:connector-curvature="0"
           sodipodi:nodetypes="ccccscscccccssscc" />
      </g>
    </g>
    <g
       transform="matrix(0.43824903,0,0,0.43824903,-25.128728,144.07064)"
       id="g872"
       style="stroke-width:1.59726537;stroke-miterlimit:4;stroke-dasharray:none;stroke:#68469d;stroke-opacity:1">
      <path
         inkscape:connector-curvature="0"
         style="fill:none;fill-opacity:1;stroke:#68469d;stroke-width:6.03690857;stroke-linecap:butt;stroke-linejoin:round;stroke-miterlimit:4;stroke-dasharray:none;stroke-opacity:1"
         d="m 367.79883,474.49609 c -12.44212,10.00022 -25.63725,17.48585 -39.6836,22.1543 -12.28022,4.08144 -25.20422,5.19221 -38.90039,12.34961 -11.07237,5.78623 -18.31548,21.6366 -14.95312,33.32422 6.81705,23.69616 25.21652,31.10662 45.29687,27.31836 38.10836,-7.18938 63.93748,-31.41294 86.41602,-63.875 -0.84384,-1.83852 -1.08033,-4.39764 -1.1582,-7.14453 -6.70976,6.628 -13.21046,13.47337 -25.35352,14.40234 4.77286,-2.98991 10.1961,-5.34459 11.51172,-11.71094 -9.58492,4.41449 -16.9734,1.89968 -24.23438,-1.01562 4.05012,-2.50349 14.68997,4.3586 17.9336,-6.72656 1.04179,-3.56032 1.0376,-7.74468 -1.07617,-13.32618 l -9.6543,-2.83593 c -2.39075,-0.70259 -4.42447,-1.7086 -6.14453,-2.91407 z"
         transform="scale(0.26458333)"
         id="path868" />
      <path
         style="fill:none;fill-opacity:1;stroke:#68469d;stroke-width:1.59726537;stroke-linecap:butt;stroke-linejoin:round;stroke-miterlimit:4;stroke-dasharray:none;stroke-opacity:1"
         d="m 109.19548,114.68432 c -1.12177,2.71878 -1.90461,5.57445 -5.08326,7.46246 -2.45878,-0.0625 -2.79328,0.50657 -3.56832,0.94468 -1.878624,1.43836 -3.743861,0.15673 -5.09736,-0.58869 0.18662,1.56254 1.285368,3.16327 3.492755,3.81197 l 2.554075,0.7506 c 0.55927,1.47677 0.5607,2.58342 0.28506,3.52542 -0.85821,2.93295 -3.673258,1.11758 -4.744851,1.77996 1.921133,0.77134 3.875781,1.43694 6.411791,0.26894 -0.34809,1.68443 -1.78317,2.30728 -3.04599,3.09836 3.21285,-0.24579 4.93303,-2.05727 6.70832,-3.81093 0.0375,1.32271 0.2099,2.48544 1.24783,2.6217 -0.45034,-1.71325 0.40467,-3.5873 0.7659,-5.54562 0,0 0.0178,-1.72298 -0.27305,-2.51154 -0.30848,-0.83643 -0.57439,-2.96447 0.84895,-5.38435 0.9916,-1.6859 0.75252,-5.81924 0.75252,-5.81924 -0.33058,-0.33029 -0.71249,-0.58495 -1.25438,-0.60371 z"
         id="path870"
         inkscape:connector-curvature="0"
         sodipodi:nodetypes="ccccscscccccssscc" />
    </g>
    <g
       transform="matrix(-0.26707296,-0.05203331,-0.05203331,0.26707296,65.991342,203.77723)"
       id="g878"
       style="stroke:#68469d;stroke-width:2.57263541;stroke-miterlimit:4;stroke-dasharray:none;stroke-opacity:1">
      <path
         inkscape:connector-curvature="0"
         id="path874"
         transform="scale(0.26458333)"
         d="m 367.79883,474.49609 c -12.44212,10.00022 -25.63725,17.48585 -39.6836,22.1543 -12.28022,4.08144 -25.20422,5.19221 -38.90039,12.34961 -11.07237,5.78623 -18.31548,21.6366 -14.95312,33.32422 6.81705,23.69616 25.21652,31.10662 45.29687,27.31836 38.10836,-7.18938 63.93748,-31.41294 86.41602,-63.875 -0.84384,-1.83852 -1.08033,-4.39764 -1.1582,-7.14453 -6.70976,6.628 -13.21046,13.47337 -25.35352,14.40234 4.77286,-2.98991 10.1961,-5.34459 11.51172,-11.71094 -9.58492,4.41449 -16.9734,1.89968 -24.23438,-1.01562 4.05012,-2.50349 14.68997,4.3586 17.9336,-6.72656 1.04179,-3.56032 1.0376,-7.74468 -1.07617,-13.32618 l -9.6543,-2.83593 c -2.39075,-0.70259 -4.42447,-1.7086 -6.14453,-2.91407 z"
         style="fill:none;fill-opacity:1;stroke:#68469d;stroke-width:9.72334671;stroke-linecap:butt;stroke-linejoin:round;stroke-miterlimit:4;stroke-dasharray:none;stroke-opacity:1" />
      <path
         sodipodi:nodetypes="ccccscscccccssscc"
         inkscape:connector-curvature="0"
         id="path876"
         d="m 109.19548,114.68432 c -1.12177,2.71878 -1.90461,5.57445 -5.08326,7.46246 -2.45878,-0.0625 -2.79328,0.50657 -3.56832,0.94468 -1.878624,1.43836 -3.743861,0.15673 -5.09736,-0.58869 0.18662,1.56254 1.285368,3.16327 3.492755,3.81197 l 2.554075,0.7506 c 0.55927,1.47677 0.5607,2.58342 0.28506,3.52542 -0.85821,2.93295 -3.673258,1.11758 -4.744851,1.77996 1.921133,0.77134 3.875781,1.43694 6.411791,0.26894 -0.34809,1.68443 -1.78317,2.30728 -3.04599,3.09836 3.21285,-0.24579 4.93303,-2.05727 6.70832,-3.81093 0.0375,1.32271 0.2099,2.48544 1.24783,2.6217 -0.45034,-1.71325 0.40467,-3.5873 0.7659,-5.54562 0,0 0.0178,-1.72298 -0.27305,-2.51154 -0.30848,-0.83643 -0.57439,-2.96447 0.84895,-5.38435 0.9916,-1.6859 0.75252,-5.81924 0.75252,-5.81924 -0.33058,-0.33029 -0.71249,-0.58495 -1.25438,-0.60371 z"
         style="fill:none;fill-opacity:1;stroke:#68469d;stroke-width:2.57263541;stroke-linecap:butt;stroke-linejoin:round;stroke-miterlimit:4;stroke-dasharray:none;stroke-opacity:1" />
    </g>
    <g
       id="g884"
       transform="matrix(0.38908911,0,0,0.38908911,11.755408,193.08075)"
       style="stroke-width:1.79907374;stroke-miterlimit:4;stroke-dasharray:none;stroke:#68469d;stroke-opacity:1">
      <path
         style="fill:none;fill-opacity:1;stroke:#68469d;stroke-width:6.79964886;stroke-linecap:butt;stroke-linejoin:round;stroke-miterlimit:4;stroke-dasharray:none;stroke-opacity:1"
         d="m 367.79883,474.49609 c -12.44212,10.00022 -25.63725,17.48585 -39.6836,22.1543 -12.28022,4.08144 -25.20422,5.19221 -38.90039,12.34961 -11.07237,5.78623 -18.31548,21.6366 -14.95312,33.32422 6.81705,23.69616 25.21652,31.10662 45.29687,27.31836 38.10836,-7.18938 63.93748,-31.41294 86.41602,-63.875 -0.84384,-1.83852 -1.08033,-4.39764 -1.1582,-7.14453 -6.70976,6.628 -13.21046,13.47337 -25.35352,14.40234 4.77286,-2.98991 10.1961,-5.34459 11.51172,-11.71094 -9.58492,4.41449 -16.9734,1.89968 -24.23438,-1.01562 4.05012,-2.50349 14.68997,4.3586 17.9336,-6.72656 1.04179,-3.56032 1.0376,-7.74468 -1.07617,-13.32618 l -9.6543,-2.83593 c -2.39075,-0.70259 -4.42447,-1.7086 -6.14453,-2.91407 z"
         transform="scale(0.26458333)"
         id="path880"
         inkscape:connector-curvature="0" />
      <path
         style="fill:none;fill-opacity:1;stroke:#68469d;stroke-width:1.79907374;stroke-linecap:butt;stroke-linejoin:round;stroke-miterlimit:4;stroke-dasharray:none;stroke-opacity:1"
         d="m 109.19548,114.68432 c -1.12177,2.71878 -1.90461,5.57445 -5.08326,7.46246 -2.45878,-0.0625 -2.79328,0.50657 -3.56832,0.94468 -1.878624,1.43836 -3.743861,0.15673 -5.09736,-0.58869 0.18662,1.56254 1.285368,3.16327 3.492755,3.81197 l 2.554075,0.7506 c 0.55927,1.47677 0.5607,2.58342 0.28506,3.52542 -0.85821,2.93295 -3.673258,1.11758 -4.744851,1.77996 1.921133,0.77134 3.875781,1.43694 6.411791,0.26894 -0.34809,1.68443 -1.78317,2.30728 -3.04599,3.09836 3.21285,-0.24579 4.93303,-2.05727 6.70832,-3.81093 0.0375,1.32271 0.2099,2.48544 1.24783,2.6217 -0.45034,-1.71325 0.40467,-3.5873 0.7659,-5.54562 0,0 0.0178,-1.72298 -0.27305,-2.51154 -0.30848,-0.83643 -0.57439,-2.96447 0.84895,-5.38435 0.9916,-1.6859 0.75252,-5.81924 0.75252,-5.81924 -0.33058,-0.33029 -0.71249,-0.58495 -1.25438,-0.60371 z"
         id="path882"
         inkscape:connector-curvature="0"
         sodipodi:nodetypes="ccccscscccccssscc" />
    </g>
    <g
       transform="matrix(-0.09678541,0.37685928,0.37685928,0.09678541,-28.029637,181.71155)"
       id="g890"
       style="stroke-width:1.79907376;stroke-miterlimit:4;stroke-dasharray:none;stroke:#68469d;stroke-opacity:1">
      <path
         inkscape:connector-curvature="0"
         id="path886"
         transform="scale(0.26458333)"
         d="m 367.79883,474.49609 c -12.44212,10.00022 -25.63725,17.48585 -39.6836,22.1543 -12.28022,4.08144 -25.20422,5.19221 -38.90039,12.34961 -11.07237,5.78623 -18.31548,21.6366 -14.95312,33.32422 6.81705,23.69616 25.21652,31.10662 45.29687,27.31836 38.10836,-7.18938 63.93748,-31.41294 86.41602,-63.875 -0.84384,-1.83852 -1.08033,-4.39764 -1.1582,-7.14453 -6.70976,6.628 -13.21046,13.47337 -25.35352,14.40234 4.77286,-2.98991 10.1961,-5.34459 11.51172,-11.71094 -9.58492,4.41449 -16.9734,1.89968 -24.23438,-1.01562 4.05012,-2.50349 14.68997,4.3586 17.9336,-6.72656 1.04179,-3.56032 1.0376,-7.74468 -1.07617,-13.32618 l -9.6543,-2.83593 c -2.39075,-0.70259 -4.42447,-1.7086 -6.14453,-2.91407 z"
         style="fill:none;fill-opacity:1;stroke:#68469d;stroke-width:6.79964893;stroke-linecap:butt;stroke-linejoin:round;stroke-miterlimit:4;stroke-dasharray:none;stroke-opacity:1" />
      <path
         sodipodi:nodetypes="ccccscscccccssscc"
         inkscape:connector-curvature="0"
         id="path888"
         d="m 109.19548,114.68432 c -1.12177,2.71878 -1.90461,5.57445 -5.08326,7.46246 -2.45878,-0.0625 -2.79328,0.50657 -3.56832,0.94468 -1.878624,1.43836 -3.743861,0.15673 -5.09736,-0.58869 0.18662,1.56254 1.285368,3.16327 3.492755,3.81197 l 2.554075,0.7506 c 0.55927,1.47677 0.5607,2.58342 0.28506,3.52542 -0.85821,2.93295 -3.673258,1.11758 -4.744851,1.77996 1.921133,0.77134 3.875781,1.43694 6.411791,0.26894 -0.34809,1.68443 -1.78317,2.30728 -3.04599,3.09836 3.21285,-0.24579 4.93303,-2.05727 6.70832,-3.81093 0.0375,1.32271 0.2099,2.48544 1.24783,2.6217 -0.45034,-1.71325 0.40467,-3.5873 0.7659,-5.54562 0,0 0.0178,-1.72298 -0.27305,-2.51154 -0.30848,-0.83643 -0.57439,-2.96447 0.84895,-5.38435 0.9916,-1.6859 0.75252,-5.81924 0.75252,-5.81924 -0.33058,-0.33029 -0.71249,-0.58495 -1.25438,-0.60371 z"
         style="fill:none;fill-opacity:1;stroke:#68469d;stroke-width:1.79907376;stroke-linecap:butt;stroke-linejoin:round;stroke-miterlimit:4;stroke-dasharray:none;stroke-opacity:1" />
    </g>
    <g
       id="g898"
       transform="matrix(0.14091454,-0.47094749,0.47094749,0.14091454,-34.230333,237.69171)"
       style="stroke:#68469d;stroke-width:1.42398703;stroke-miterlimit:4;stroke-dasharray:none;stroke-opacity:1">
      <g
         transform="matrix(0.70726539,-0.70694814,-0.70694814,-0.70726539,121.9078,294.40485)"
         id="g896"
         style="stroke:#68469d;stroke-width:1.42398703;stroke-miterlimit:4;stroke-dasharray:none;stroke-opacity:1">
        <path
           inkscape:connector-curvature="0"
           id="path892"
           transform="scale(0.26458333)"
           d="m 367.79883,474.49609 c -12.44212,10.00022 -25.63725,17.48585 -39.6836,22.1543 -12.28022,4.08144 -25.20422,5.19221 -38.90039,12.34961 -11.07237,5.78623 -18.31548,21.6366 -14.95312,33.32422 6.81705,23.69616 25.21652,31.10662 45.29687,27.31836 38.10836,-7.18938 63.93748,-31.41294 86.41602,-63.875 -0.84384,-1.83852 -1.08033,-4.39764 -1.1582,-7.14453 -6.70976,6.628 -13.21046,13.47337 -25.35352,14.40234 4.77286,-2.98991 10.1961,-5.34459 11.51172,-11.71094 -9.58492,4.41449 -16.9734,1.89968 -24.23438,-1.01562 4.05012,-2.50349 14.68997,4.3586 17.9336,-6.72656 1.04179,-3.56032 1.0376,-7.74468 -1.07617,-13.32618 l -9.6543,-2.83593 c -2.39075,-0.70259 -4.42447,-1.7086 -6.14453,-2.91407 z"
           style="fill:none;fill-opacity:1;stroke:#68469d;stroke-width:5.38199854;stroke-linecap:butt;stroke-linejoin:round;stroke-miterlimit:4;stroke-dasharray:none;stroke-opacity:1" />
        <path
           sodipodi:nodetypes="ccccscscccccssscc"
           inkscape:connector-curvature="0"
           id="path894"
           d="m 109.19548,114.68432 c -1.12177,2.71878 -1.90461,5.57445 -5.08326,7.46246 -2.45878,-0.0625 -2.79328,0.50657 -3.56832,0.94468 -1.878624,1.43836 -3.743861,0.15673 -5.09736,-0.58869 0.18662,1.56254 1.285368,3.16327 3.492755,3.81197 l 2.554075,0.7506 c 0.55927,1.47677 0.5607,2.58342 0.28506,3.52542 -0.85821,2.93295 -3.673258,1.11758 -4.744851,1.77996 1.921133,0.77134 3.875781,1.43694 6.411791,0.26894 -0.34809,1.68443 -1.78317,2.30728 -3.04599,3.09836 3.21285,-0.24579 4.93303,-2.05727 6.70832,-3.81093 0.0375,1.32271 0.2099,2.48544 1.24783,2.6217 -0.45034,-1.71325 0.40467,-3.5873 0.7659,-5.54562 0,0 0.0178,-1.72298 -0.27305,-2.51154 -0.30848,-0.83643 -0.57439,-2.96447 0.84895,-5.38435 0.9916,-1.6859 0.75252,-5.81924 0.75252,-5.81924 -0.33058,-0.33029 -0.71249,-0.58495 -1.25438,-0.60371 z"
           style="fill:none;fill-opacity:1;stroke:#68469d;stroke-width:1.42398703;stroke-linecap:butt;stroke-linejoin:round;stroke-miterlimit:4;stroke-dasharray:none;stroke-opacity:1" />
      </g>
    </g>
    <g
       id="g909"
       transform="matrix(0.43824903,0,0,0.43824903,23.518144,141.80279)"
       style="stroke:#68469d;stroke-width:1.59726536;stroke-miterlimit:4;stroke-dasharray:none;stroke-opacity:1">
      <path
         id="path905"
         transform="scale(0.26458333)"
         d="m 367.79883,474.49609 c -12.44212,10.00022 -25.63725,17.48585 -39.6836,22.1543 -12.28022,4.08144 -25.20422,5.19221 -38.90039,12.34961 -11.07237,5.78623 -18.31548,21.6366 -14.95312,33.32422 6.81705,23.69616 25.21652,31.10662 45.29687,27.31836 38.10836,-7.18938 63.93748,-31.41294 86.41602,-63.875 -0.84384,-1.83852 -1.08033,-4.39764 -1.1582,-7.14453 -6.70976,6.628 -13.21046,13.47337 -25.35352,14.40234 4.77286,-2.98991 10.1961,-5.34459 11.51172,-11.71094 -9.58492,4.41449 -16.9734,1.89968 -24.23438,-1.01562 4.05012,-2.50349 14.68997,4.3586 17.9336,-6.72656 1.04179,-3.56032 1.0376,-7.74468 -1.07617,-13.32618 l -9.6543,-2.83593 c -2.39075,-0.70259 -4.42447,-1.7086 -6.14453,-2.91407 z"
         style="fill:none;fill-opacity:1;stroke:#68469d;stroke-width:6.03690863;stroke-linecap:butt;stroke-linejoin:round;stroke-miterlimit:4;stroke-dasharray:none;stroke-opacity:1"
         inkscape:connector-curvature="0" />
      <path
         sodipodi:nodetypes="ccccscscccccssscc"
         inkscape:connector-curvature="0"
         id="path907"
         d="m 109.19548,114.68432 c -1.12177,2.71878 -1.90461,5.57445 -5.08326,7.46246 -2.45878,-0.0625 -2.79328,0.50657 -3.56832,0.94468 -1.878624,1.43836 -3.743861,0.15673 -5.09736,-0.58869 0.18662,1.56254 1.285368,3.16327 3.492755,3.81197 l 2.554075,0.7506 c 0.55927,1.47677 0.5607,2.58342 0.28506,3.52542 -0.85821,2.93295 -3.673258,1.11758 -4.744851,1.77996 1.921133,0.77134 3.875781,1.43694 6.411791,0.26894 -0.34809,1.68443 -1.78317,2.30728 -3.04599,3.09836 3.21285,-0.24579 4.93303,-2.05727 6.70832,-3.81093 0.0375,1.32271 0.2099,2.48544 1.24783,2.6217 -0.45034,-1.71325 0.40467,-3.5873 0.7659,-5.54562 0,0 0.0178,-1.72298 -0.27305,-2.51154 -0.30848,-0.83643 -0.57439,-2.96447 0.84895,-5.38435 0.9916,-1.6859 0.75252,-5.81924 0.75252,-5.81924 -0.33058,-0.33029 -0.71249,-0.58495 -1.25438,-0.60371 z"
         style="fill:none;fill-opacity:1;stroke:#68469d;stroke-width:1.59726536;stroke-linecap:butt;stroke-linejoin:round;stroke-miterlimit:4;stroke-dasharray:none;stroke-opacity:1" />
    </g>
    <g
       id="g915"
       transform="matrix(-0.26707296,-0.05203331,-0.05203331,0.26707296,116.52809,190.35908)"
       style="stroke:#68469d;stroke-width:2.57263541;stroke-miterlimit:4;stroke-dasharray:none;stroke-opacity:1">
      <path
         style="fill:none;fill-opacity:1;stroke:#68469d;stroke-width:9.72334671;stroke-linecap:butt;stroke-linejoin:round;stroke-miterlimit:4;stroke-dasharray:none;stroke-opacity:1"
         d="m 367.79883,474.49609 c -12.44212,10.00022 -25.63725,17.48585 -39.6836,22.1543 -12.28022,4.08144 -25.20422,5.19221 -38.90039,12.34961 -11.07237,5.78623 -18.31548,21.6366 -14.95312,33.32422 6.81705,23.69616 25.21652,31.10662 45.29687,27.31836 38.10836,-7.18938 63.93748,-31.41294 86.41602,-63.875 -0.84384,-1.83852 -1.08033,-4.39764 -1.1582,-7.14453 -6.70976,6.628 -13.21046,13.47337 -25.35352,14.40234 4.77286,-2.98991 10.1961,-5.34459 11.51172,-11.71094 -9.58492,4.41449 -16.9734,1.89968 -24.23438,-1.01562 4.05012,-2.50349 14.68997,4.3586 17.9336,-6.72656 1.04179,-3.56032 1.0376,-7.74468 -1.07617,-13.32618 l -9.6543,-2.83593 c -2.39075,-0.70259 -4.42447,-1.7086 -6.14453,-2.91407 z"
         transform="scale(0.26458333)"
         id="path911"
         inkscape:connector-curvature="0" />
      <path
         style="fill:none;fill-opacity:1;stroke:#68469d;stroke-width:2.57263541;stroke-linecap:butt;stroke-linejoin:round;stroke-miterlimit:4;stroke-dasharray:none;stroke-opacity:1"
         d="m 109.19548,114.68432 c -1.12177,2.71878 -1.90461,5.57445 -5.08326,7.46246 -2.45878,-0.0625 -2.79328,0.50657 -3.56832,0.94468 -1.878624,1.43836 -3.743861,0.15673 -5.09736,-0.58869 0.18662,1.56254 1.285368,3.16327 3.492755,3.81197 l 2.554075,0.7506 c 0.55927,1.47677 0.5607,2.58342 0.28506,3.52542 -0.85821,2.93295 -3.673258,1.11758 -4.744851,1.77996 1.921133,0.77134 3.875781,1.43694 6.411791,0.26894 -0.34809,1.68443 -1.78317,2.30728 -3.04599,3.09836 3.21285,-0.24579 4.93303,-2.05727 6.70832,-3.81093 0.0375,1.32271 0.2099,2.48544 1.24783,2.6217 -0.45034,-1.71325 0.40467,-3.5873 0.7659,-5.54562 0,0 0.0178,-1.72298 -0.27305,-2.51154 -0.30848,-0.83643 -0.57439,-2.96447 0.84895,-5.38435 0.9916,-1.6859 0.75252,-5.81924 0.75252,-5.81924 -0.33058,-0.33029 -0.71249,-0.58495 -1.25438,-0.60371 z"
         id="path913"
         inkscape:connector-curvature="0"
         sodipodi:nodetypes="ccccscscccccssscc" />
    </g>
    <g
       transform="matrix(0.29709399,0,0,0.29709399,66.63815,198.48702)"
       id="g921"
       style="stroke:#68469d;stroke-width:2.35615683;stroke-miterlimit:4;stroke-dasharray:none;stroke-opacity:1">
      <path
         inkscape:connector-curvature="0"
         id="path917"
         transform="scale(0.26458333)"
         d="m 367.79883,474.49609 c -12.44212,10.00022 -25.63725,17.48585 -39.6836,22.1543 -12.28022,4.08144 -25.20422,5.19221 -38.90039,12.34961 -11.07237,5.78623 -18.31548,21.6366 -14.95312,33.32422 6.81705,23.69616 25.21652,31.10662 45.29687,27.31836 38.10836,-7.18938 63.93748,-31.41294 86.41602,-63.875 -0.84384,-1.83852 -1.08033,-4.39764 -1.1582,-7.14453 -6.70976,6.628 -13.21046,13.47337 -25.35352,14.40234 4.77286,-2.98991 10.1961,-5.34459 11.51172,-11.71094 -9.58492,4.41449 -16.9734,1.89968 -24.23438,-1.01562 4.05012,-2.50349 14.68997,4.3586 17.9336,-6.72656 1.04179,-3.56032 1.0376,-7.74468 -1.07617,-13.32618 l -9.6543,-2.83593 c -2.39075,-0.70259 -4.42447,-1.7086 -6.14453,-2.91407 z"
         style="fill:none;fill-opacity:1;stroke:#68469d;stroke-width:8.905159;stroke-linecap:butt;stroke-linejoin:round;stroke-miterlimit:4;stroke-dasharray:none;stroke-opacity:1" />
      <path
         sodipodi:nodetypes="ccccscscccccssscc"
         inkscape:connector-curvature="0"
         id="path919"
         d="m 109.19548,114.68432 c -1.12177,2.71878 -1.90461,5.57445 -5.08326,7.46246 -2.45878,-0.0625 -2.79328,0.50657 -3.56832,0.94468 -1.878624,1.43836 -3.743861,0.15673 -5.09736,-0.58869 0.18662,1.56254 1.285368,3.16327 3.492755,3.81197 l 2.554075,0.7506 c 0.55927,1.47677 0.5607,2.58342 0.28506,3.52542 -0.85821,2.93295 -3.673258,1.11758 -4.744851,1.77996 1.921133,0.77134 3.875781,1.43694 6.411791,0.26894 -0.34809,1.68443 -1.78317,2.30728 -3.04599,3.09836 3.21285,-0.24579 4.93303,-2.05727 6.70832,-3.81093 0.0375,1.32271 0.2099,2.48544 1.24783,2.6217 -0.45034,-1.71325 0.40467,-3.5873 0.7659,-5.54562 0,0 0.0178,-1.72298 -0.27305,-2.51154 -0.30848,-0.83643 -0.57439,-2.96447 0.84895,-5.38435 0.9916,-1.6859 0.75252,-5.81924 0.75252,-5.81924 -0.33058,-0.33029 -0.71249,-0.58495 -1.25438,-0.60371 z"
         style="fill:none;fill-opacity:1;stroke:#68469d;stroke-width:2.35615683;stroke-linecap:butt;stroke-linejoin:round;stroke-miterlimit:4;stroke-dasharray:none;stroke-opacity:1" />
    </g>
    <g
       id="g927"
       transform="matrix(-0.09678541,0.37685928,0.37685928,0.09678541,22.696104,178.30976)"
       style="stroke-width:1.79907376;stroke-miterlimit:4;stroke-dasharray:none;stroke:#68469d;stroke-opacity:1">
      <path
         style="fill:none;fill-opacity:1;stroke:#68469d;stroke-width:6.79964893;stroke-linecap:butt;stroke-linejoin:round;stroke-miterlimit:4;stroke-dasharray:none;stroke-opacity:1"
         d="m 367.79883,474.49609 c -12.44212,10.00022 -25.63725,17.48585 -39.6836,22.1543 -12.28022,4.08144 -25.20422,5.19221 -38.90039,12.34961 -11.07237,5.78623 -18.31548,21.6366 -14.95312,33.32422 6.81705,23.69616 25.21652,31.10662 45.29687,27.31836 38.10836,-7.18938 63.93748,-31.41294 86.41602,-63.875 -0.84384,-1.83852 -1.08033,-4.39764 -1.1582,-7.14453 -6.70976,6.628 -13.21046,13.47337 -25.35352,14.40234 4.77286,-2.98991 10.1961,-5.34459 11.51172,-11.71094 -9.58492,4.41449 -16.9734,1.89968 -24.23438,-1.01562 4.05012,-2.50349 14.68997,4.3586 17.9336,-6.72656 1.04179,-3.56032 1.0376,-7.74468 -1.07617,-13.32618 l -9.6543,-2.83593 c -2.39075,-0.70259 -4.42447,-1.7086 -6.14453,-2.91407 z"
         transform="scale(0.26458333)"
         id="path923"
         inkscape:connector-curvature="0" />
      <path
         style="fill:none;fill-opacity:1;stroke:#68469d;stroke-width:1.79907376;stroke-linecap:butt;stroke-linejoin:round;stroke-miterlimit:4;stroke-dasharray:none;stroke-opacity:1"
         d="m 109.19548,114.68432 c -1.12177,2.71878 -1.90461,5.57445 -5.08326,7.46246 -2.45878,-0.0625 -2.79328,0.50657 -3.56832,0.94468 -1.878624,1.43836 -3.743861,0.15673 -5.09736,-0.58869 0.18662,1.56254 1.285368,3.16327 3.492755,3.81197 l 2.554075,0.7506 c 0.55927,1.47677 0.5607,2.58342 0.28506,3.52542 -0.85821,2.93295 -3.673258,1.11758 -4.744851,1.77996 1.921133,0.77134 3.875781,1.43694 6.411791,0.26894 -0.34809,1.68443 -1.78317,2.30728 -3.04599,3.09836 3.21285,-0.24579 4.93303,-2.05727 6.70832,-3.81093 0.0375,1.32271 0.2099,2.48544 1.24783,2.6217 -0.45034,-1.71325 0.40467,-3.5873 0.7659,-5.54562 0,0 0.0178,-1.72298 -0.27305,-2.51154 -0.30848,-0.83643 -0.57439,-2.96447 0.84895,-5.38435 0.9916,-1.6859 0.75252,-5.81924 0.75252,-5.81924 -0.33058,-0.33029 -0.71249,-0.58495 -1.25438,-0.60371 z"
         id="path925"
         inkscape:connector-curvature="0"
         sodipodi:nodetypes="ccccscscccccssscc" />
    </g>
    <g
       transform="matrix(0.11153544,-0.37276022,0.37276022,0.11153544,38.645121,222.7864)"
       id="g935"
       style="stroke:#68469d;stroke-width:1.7990737;stroke-miterlimit:4;stroke-dasharray:none;stroke-opacity:1">
      <g
         id="g933"
         transform="matrix(0.70726539,-0.70694814,-0.70694814,-0.70726539,121.9078,294.40485)"
         style="stroke:#68469d;stroke-width:1.7990737;stroke-miterlimit:4;stroke-dasharray:none;stroke-opacity:1">
        <path
           style="fill:none;fill-opacity:1;stroke:#68469d;stroke-width:6.79964876;stroke-linecap:butt;stroke-linejoin:round;stroke-miterlimit:4;stroke-dasharray:none;stroke-opacity:1"
           d="m 367.79883,474.49609 c -12.44212,10.00022 -25.63725,17.48585 -39.6836,22.1543 -12.28022,4.08144 -25.20422,5.19221 -38.90039,12.34961 -11.07237,5.78623 -18.31548,21.6366 -14.95312,33.32422 6.81705,23.69616 25.21652,31.10662 45.29687,27.31836 38.10836,-7.18938 63.93748,-31.41294 86.41602,-63.875 -0.84384,-1.83852 -1.08033,-4.39764 -1.1582,-7.14453 -6.70976,6.628 -13.21046,13.47337 -25.35352,14.40234 4.77286,-2.98991 10.1961,-5.34459 11.51172,-11.71094 -9.58492,4.41449 -16.9734,1.89968 -24.23438,-1.01562 4.05012,-2.50349 14.68997,4.3586 17.9336,-6.72656 1.04179,-3.56032 1.0376,-7.74468 -1.07617,-13.32618 l -9.6543,-2.83593 c -2.39075,-0.70259 -4.42447,-1.7086 -6.14453,-2.91407 z"
           transform="scale(0.26458333)"
           id="path929"
           inkscape:connector-curvature="0" />
        <path
           style="fill:none;fill-opacity:1;stroke:#68469d;stroke-width:1.7990737;stroke-linecap:butt;stroke-linejoin:round;stroke-miterlimit:4;stroke-dasharray:none;stroke-opacity:1"
           d="m 109.19548,114.68432 c -1.12177,2.71878 -1.90461,5.57445 -5.08326,7.46246 -2.45878,-0.0625 -2.79328,0.50657 -3.56832,0.94468 -1.878624,1.43836 -3.743861,0.15673 -5.09736,-0.58869 0.18662,1.56254 1.285368,3.16327 3.492755,3.81197 l 2.554075,0.7506 c 0.55927,1.47677 0.5607,2.58342 0.28506,3.52542 -0.85821,2.93295 -3.673258,1.11758 -4.744851,1.77996 1.921133,0.77134 3.875781,1.43694 6.411791,0.26894 -0.34809,1.68443 -1.78317,2.30728 -3.04599,3.09836 3.21285,-0.24579 4.93303,-2.05727 6.70832,-3.81093 0.0375,1.32271 0.2099,2.48544 1.24783,2.6217 -0.45034,-1.71325 0.40467,-3.5873 0.7659,-5.54562 0,0 0.0178,-1.72298 -0.27305,-2.51154 -0.30848,-0.83643 -0.57439,-2.96447 0.84895,-5.38435 0.9916,-1.6859 0.75252,-5.81924 0.75252,-5.81924 -0.33058,-0.33029 -0.71249,-0.58495 -1.25438,-0.60371 z"
           id="path931"
           inkscape:connector-curvature="0"
           sodipodi:nodetypes="ccccscscccccssscc" />
      </g>
    </g>
    <g
       transform="matrix(0.35538286,-0.25644733,0.25644733,0.35538286,2.8888912,226.59903)"
       id="g945"
       style="stroke:#68469d;stroke-width:1.59726536;stroke-miterlimit:4;stroke-dasharray:none;stroke-opacity:1">
      <path
         inkscape:connector-curvature="0"
         style="fill:none;fill-opacity:1;stroke:#68469d;stroke-width:6.03690863;stroke-linecap:butt;stroke-linejoin:round;stroke-miterlimit:4;stroke-dasharray:none;stroke-opacity:1"
         d="m 367.79883,474.49609 c -12.44212,10.00022 -25.63725,17.48585 -39.6836,22.1543 -12.28022,4.08144 -25.20422,5.19221 -38.90039,12.34961 -11.07237,5.78623 -18.31548,21.6366 -14.95312,33.32422 6.81705,23.69616 25.21652,31.10662 45.29687,27.31836 38.10836,-7.18938 63.93748,-31.41294 86.41602,-63.875 -0.84384,-1.83852 -1.08033,-4.39764 -1.1582,-7.14453 -6.70976,6.628 -13.21046,13.47337 -25.35352,14.40234 4.77286,-2.98991 10.1961,-5.34459 11.51172,-11.71094 -9.58492,4.41449 -16.9734,1.89968 -24.23438,-1.01562 4.05012,-2.50349 14.68997,4.3586 17.9336,-6.72656 1.04179,-3.56032 1.0376,-7.74468 -1.07617,-13.32618 l -9.6543,-2.83593 c -2.39075,-0.70259 -4.42447,-1.7086 -6.14453,-2.91407 z"
         transform="scale(0.26458333)"
         id="path941" />
      <path
         style="fill:none;fill-opacity:1;stroke:#68469d;stroke-width:1.59726536;stroke-linecap:butt;stroke-linejoin:round;stroke-miterlimit:4;stroke-dasharray:none;stroke-opacity:1"
         d="m 109.19548,114.68432 c -1.12177,2.71878 -1.90461,5.57445 -5.08326,7.46246 -2.45878,-0.0625 -2.79328,0.50657 -3.56832,0.94468 -1.878624,1.43836 -3.743861,0.15673 -5.09736,-0.58869 0.18662,1.56254 1.285368,3.16327 3.492755,3.81197 l 2.554075,0.7506 c 0.55927,1.47677 0.5607,2.58342 0.28506,3.52542 -0.85821,2.93295 -3.673258,1.11758 -4.744851,1.77996 1.921133,0.77134 3.875781,1.43694 6.411791,0.26894 -0.34809,1.68443 -1.78317,2.30728 -3.04599,3.09836 3.21285,-0.24579 4.93303,-2.05727 6.70832,-3.81093 0.0375,1.32271 0.2099,2.48544 1.24783,2.6217 -0.45034,-1.71325 0.40467,-3.5873 0.7659,-5.54562 0,0 0.0178,-1.72298 -0.27305,-2.51154 -0.30848,-0.83643 -0.57439,-2.96447 0.84895,-5.38435 0.9916,-1.6859 0.75252,-5.81924 0.75252,-5.81924 -0.33058,-0.33029 -0.71249,-0.58495 -1.25438,-0.60371 z"
         id="path943"
         inkscape:connector-curvature="0"
         sodipodi:nodetypes="ccccscscccccssscc" />
    </g>
    <g
       transform="matrix(-0.26707296,-0.05203331,-0.05203331,0.26707296,116.52809,247.32143)"
       id="g951"
       style="stroke-width:2.57263536;stroke-miterlimit:4;stroke-dasharray:none;stroke:#68469d;stroke-opacity:1">
      <path
         inkscape:connector-curvature="0"
         id="path947"
         transform="scale(0.26458333)"
         d="m 367.79883,474.49609 c -12.44212,10.00022 -25.63725,17.48585 -39.6836,22.1543 -12.28022,4.08144 -25.20422,5.19221 -38.90039,12.34961 -11.07237,5.78623 -18.31548,21.6366 -14.95312,33.32422 6.81705,23.69616 25.21652,31.10662 45.29687,27.31836 38.10836,-7.18938 63.93748,-31.41294 86.41602,-63.875 -0.84384,-1.83852 -1.08033,-4.39764 -1.1582,-7.14453 -6.70976,6.628 -13.21046,13.47337 -25.35352,14.40234 4.77286,-2.98991 10.1961,-5.34459 11.51172,-11.71094 -9.58492,4.41449 -16.9734,1.89968 -24.23438,-1.01562 4.05012,-2.50349 14.68997,4.3586 17.9336,-6.72656 1.04179,-3.56032 1.0376,-7.74468 -1.07617,-13.32618 l -9.6543,-2.83593 c -2.39075,-0.70259 -4.42447,-1.7086 -6.14453,-2.91407 z"
         style="fill:none;fill-opacity:1;stroke:#68469d;stroke-width:9.72334636;stroke-linecap:butt;stroke-linejoin:round;stroke-miterlimit:4;stroke-dasharray:none;stroke-opacity:1" />
      <path
         sodipodi:nodetypes="ccccscscccccssscc"
         inkscape:connector-curvature="0"
         id="path949"
         d="m 109.19548,114.68432 c -1.12177,2.71878 -1.90461,5.57445 -5.08326,7.46246 -2.45878,-0.0625 -2.79328,0.50657 -3.56832,0.94468 -1.878624,1.43836 -3.743861,0.15673 -5.09736,-0.58869 0.18662,1.56254 1.285368,3.16327 3.492755,3.81197 l 2.554075,0.7506 c 0.55927,1.47677 0.5607,2.58342 0.28506,3.52542 -0.85821,2.93295 -3.673258,1.11758 -4.744851,1.77996 1.921133,0.77134 3.875781,1.43694 6.411791,0.26894 -0.34809,1.68443 -1.78317,2.30728 -3.04599,3.09836 3.21285,-0.24579 4.93303,-2.05727 6.70832,-3.81093 0.0375,1.32271 0.2099,2.48544 1.24783,2.6217 -0.45034,-1.71325 0.40467,-3.5873 0.7659,-5.54562 0,0 0.0178,-1.72298 -0.27305,-2.51154 -0.30848,-0.83643 -0.57439,-2.96447 0.84895,-5.38435 0.9916,-1.6859 0.75252,-5.81924 0.75252,-5.81924 -0.33058,-0.33029 -0.71249,-0.58495 -1.25438,-0.60371 z"
         style="fill:none;fill-opacity:1;stroke:#68469d;stroke-width:2.57263536;stroke-linecap:butt;stroke-linejoin:round;stroke-miterlimit:4;stroke-dasharray:none;stroke-opacity:1" />
    </g>
    <g
       id="g957"
       transform="matrix(0.38908911,0,0,0.38908911,61.158232,237.94786)"
       style="stroke-width:1.79907374;stroke-miterlimit:4;stroke-dasharray:none;stroke:#68469d;stroke-opacity:1">
      <path
         style="fill:none;fill-opacity:1;stroke:#68469d;stroke-width:6.79964886;stroke-linecap:butt;stroke-linejoin:round;stroke-miterlimit:4;stroke-dasharray:none;stroke-opacity:1"
         d="m 367.79883,474.49609 c -12.44212,10.00022 -25.63725,17.48585 -39.6836,22.1543 -12.28022,4.08144 -25.20422,5.19221 -38.90039,12.34961 -11.07237,5.78623 -18.31548,21.6366 -14.95312,33.32422 6.81705,23.69616 25.21652,31.10662 45.29687,27.31836 38.10836,-7.18938 63.93748,-31.41294 86.41602,-63.875 -0.84384,-1.83852 -1.08033,-4.39764 -1.1582,-7.14453 -6.70976,6.628 -13.21046,13.47337 -25.35352,14.40234 4.77286,-2.98991 10.1961,-5.34459 11.51172,-11.71094 -9.58492,4.41449 -16.9734,1.89968 -24.23438,-1.01562 4.05012,-2.50349 14.68997,4.3586 17.9336,-6.72656 1.04179,-3.56032 1.0376,-7.74468 -1.07617,-13.32618 l -9.6543,-2.83593 c -2.39075,-0.70259 -4.42447,-1.7086 -6.14453,-2.91407 z"
         transform="scale(0.26458333)"
         id="path953"
         inkscape:connector-curvature="0" />
      <path
         style="fill:none;fill-opacity:1;stroke:#68469d;stroke-width:1.79907374;stroke-linecap:butt;stroke-linejoin:round;stroke-miterlimit:4;stroke-dasharray:none;stroke-opacity:1"
         d="m 109.19548,114.68432 c -1.12177,2.71878 -1.90461,5.57445 -5.08326,7.46246 -2.45878,-0.0625 -2.79328,0.50657 -3.56832,0.94468 -1.878624,1.43836 -3.743861,0.15673 -5.09736,-0.58869 0.18662,1.56254 1.285368,3.16327 3.492755,3.81197 l 2.554075,0.7506 c 0.55927,1.47677 0.5607,2.58342 0.28506,3.52542 -0.85821,2.93295 -3.673258,1.11758 -4.744851,1.77996 1.921133,0.77134 3.875781,1.43694 6.411791,0.26894 -0.34809,1.68443 -1.78317,2.30728 -3.04599,3.09836 3.21285,-0.24579 4.93303,-2.05727 6.70832,-3.81093 0.0375,1.32271 0.2099,2.48544 1.24783,2.6217 -0.45034,-1.71325 0.40467,-3.5873 0.7659,-5.54562 0,0 0.0178,-1.72298 -0.27305,-2.51154 -0.30848,-0.83643 -0.57439,-2.96447 0.84895,-5.38435 0.9916,-1.6859 0.75252,-5.81924 0.75252,-5.81924 -0.33058,-0.33029 -0.71249,-0.58495 -1.25438,-0.60371 z"
         id="path955"
         inkscape:connector-curvature="0"
         sodipodi:nodetypes="ccccscscccccssscc" />
    </g>
    <g
       transform="matrix(-0.09678541,0.37685928,0.37685928,0.09678541,24.585985,229.60247)"
       id="g963"
       style="stroke:#68469d;stroke-width:1.79907382;stroke-miterlimit:4;stroke-dasharray:none;stroke-opacity:1">
      <path
         inkscape:connector-curvature="0"
         id="path959"
         transform="scale(0.26458333)"
         d="m 367.79883,474.49609 c -12.44212,10.00022 -25.63725,17.48585 -39.6836,22.1543 -12.28022,4.08144 -25.20422,5.19221 -38.90039,12.34961 -11.07237,5.78623 -18.31548,21.6366 -14.95312,33.32422 6.81705,23.69616 25.21652,31.10662 45.29687,27.31836 38.10836,-7.18938 63.93748,-31.41294 86.41602,-63.875 -0.84384,-1.83852 -1.08033,-4.39764 -1.1582,-7.14453 -6.70976,6.628 -13.21046,13.47337 -25.35352,14.40234 4.77286,-2.98991 10.1961,-5.34459 11.51172,-11.71094 -9.58492,4.41449 -16.9734,1.89968 -24.23438,-1.01562 4.05012,-2.50349 14.68997,4.3586 17.9336,-6.72656 1.04179,-3.56032 1.0376,-7.74468 -1.07617,-13.32618 l -9.6543,-2.83593 c -2.39075,-0.70259 -4.42447,-1.7086 -6.14453,-2.91407 z"
         style="fill:none;fill-opacity:1;stroke:#68469d;stroke-width:6.79964876;stroke-linecap:butt;stroke-linejoin:round;stroke-miterlimit:4;stroke-dasharray:none;stroke-opacity:1" />
      <path
         sodipodi:nodetypes="ccccscscccccssscc"
         inkscape:connector-curvature="0"
         id="path961"
         d="m 109.19548,114.68432 c -1.12177,2.71878 -1.90461,5.57445 -5.08326,7.46246 -2.45878,-0.0625 -2.79328,0.50657 -3.56832,0.94468 -1.878624,1.43836 -3.743861,0.15673 -5.09736,-0.58869 0.18662,1.56254 1.285368,3.16327 3.492755,3.81197 l 2.554075,0.7506 c 0.55927,1.47677 0.5607,2.58342 0.28506,3.52542 -0.85821,2.93295 -3.673258,1.11758 -4.744851,1.77996 1.921133,0.77134 3.875781,1.43694 6.411791,0.26894 -0.34809,1.68443 -1.78317,2.30728 -3.04599,3.09836 3.21285,-0.24579 4.93303,-2.05727 6.70832,-3.81093 0.0375,1.32271 0.2099,2.48544 1.24783,2.6217 -0.45034,-1.71325 0.40467,-3.5873 0.7659,-5.54562 0,0 0.0178,-1.72298 -0.27305,-2.51154 -0.30848,-0.83643 -0.57439,-2.96447 0.84895,-5.38435 0.9916,-1.6859 0.75252,-5.81924 0.75252,-5.81924 -0.33058,-0.33029 -0.71249,-0.58495 -1.25438,-0.60371 z"
         style="fill:none;fill-opacity:1;stroke:#68469d;stroke-width:1.79907382;stroke-linecap:butt;stroke-linejoin:round;stroke-miterlimit:4;stroke-dasharray:none;stroke-opacity:1" />
    </g>
    <g
       id="g971"
       transform="matrix(0.11153544,-0.37276022,0.37276022,0.11153544,39.968038,279.55977)"
       style="stroke:#68469d;stroke-width:1.7990737;stroke-miterlimit:4;stroke-dasharray:none;stroke-opacity:1">
      <g
         transform="matrix(0.70726539,-0.70694814,-0.70694814,-0.70726539,121.9078,294.40485)"
         id="g969"
         style="stroke:#68469d;stroke-width:1.7990737;stroke-miterlimit:4;stroke-dasharray:none;stroke-opacity:1">
        <path
           inkscape:connector-curvature="0"
           id="path965"
           transform="scale(0.26458333)"
           d="m 367.79883,474.49609 c -12.44212,10.00022 -25.63725,17.48585 -39.6836,22.1543 -12.28022,4.08144 -25.20422,5.19221 -38.90039,12.34961 -11.07237,5.78623 -18.31548,21.6366 -14.95312,33.32422 6.81705,23.69616 25.21652,31.10662 45.29687,27.31836 38.10836,-7.18938 63.93748,-31.41294 86.41602,-63.875 -0.84384,-1.83852 -1.08033,-4.39764 -1.1582,-7.14453 -6.70976,6.628 -13.21046,13.47337 -25.35352,14.40234 4.77286,-2.98991 10.1961,-5.34459 11.51172,-11.71094 -9.58492,4.41449 -16.9734,1.89968 -24.23438,-1.01562 4.05012,-2.50349 14.68997,4.3586 17.9336,-6.72656 1.04179,-3.56032 1.0376,-7.74468 -1.07617,-13.32618 l -9.6543,-2.83593 c -2.39075,-0.70259 -4.42447,-1.7086 -6.14453,-2.91407 z"
           style="fill:none;fill-opacity:1;stroke:#68469d;stroke-width:6.79964876;stroke-linecap:butt;stroke-linejoin:round;stroke-miterlimit:4;stroke-dasharray:none;stroke-opacity:1" />
        <path
           sodipodi:nodetypes="ccccscscccccssscc"
           inkscape:connector-curvature="0"
           id="path967"
           d="m 109.19548,114.68432 c -1.12177,2.71878 -1.90461,5.57445 -5.08326,7.46246 -2.45878,-0.0625 -2.79328,0.50657 -3.56832,0.94468 -1.878624,1.43836 -3.743861,0.15673 -5.09736,-0.58869 0.18662,1.56254 1.285368,3.16327 3.492755,3.81197 l 2.554075,0.7506 c 0.55927,1.47677 0.5607,2.58342 0.28506,3.52542 -0.85821,2.93295 -3.673258,1.11758 -4.744851,1.77996 1.921133,0.77134 3.875781,1.43694 6.411791,0.26894 -0.34809,1.68443 -1.78317,2.30728 -3.04599,3.09836 3.21285,-0.24579 4.93303,-2.05727 6.70832,-3.81093 0.0375,1.32271 0.2099,2.48544 1.24783,2.6217 -0.45034,-1.71325 0.40467,-3.5873 0.7659,-5.54562 0,0 0.0178,-1.72298 -0.27305,-2.51154 -0.30848,-0.83643 -0.57439,-2.96447 0.84895,-5.38435 0.9916,-1.6859 0.75252,-5.81924 0.75252,-5.81924 -0.33058,-0.33029 -0.71249,-0.58495 -1.25438,-0.60371 z"
           style="fill:none;fill-opacity:1;stroke:#68469d;stroke-width:1.7990737;stroke-linecap:butt;stroke-linejoin:round;stroke-miterlimit:4;stroke-dasharray:none;stroke-opacity:1" />
      </g>
    </g>
  </g>
</svg>
