<?xml version="1.0" encoding="UTF-8" standalone="no"?>
<!-- Created with Inkscape (http://www.inkscape.org/) -->

<svg
   xmlns:dc="http://purl.org/dc/elements/1.1/"
   xmlns:cc="http://creativecommons.org/ns#"
   xmlns:rdf="http://www.w3.org/1999/02/22-rdf-syntax-ns#"
   xmlns:svg="http://www.w3.org/2000/svg"
   xmlns="http://www.w3.org/2000/svg"
   xmlns:sodipodi="http://sodipodi.sourceforge.net/DTD/sodipodi-0.dtd"
   xmlns:inkscape="http://www.inkscape.org/namespaces/inkscape"
   width="500"
   height="300"
   viewBox="0 0 132.29166 79.375005"
   version="1.1"
   id="svg947"
   inkscape:version="0.92.3 (2405546, 2018-03-11)"
   sodipodi:docname="desktop_mobile.svg">
  <defs
     id="defs941">
    <inkscape:path-effect
       effect="spiro"
       id="path-effect881"
       is_visible="true" />
    <inkscape:path-effect
       effect="spiro"
       id="path-effect895"
       is_visible="true" />
    <inkscape:path-effect
       is_visible="true"
       id="path-effect899"
       effect="spiro" />
    <inkscape:path-effect
       effect="spiro"
       id="path-effect904"
       is_visible="true" />
    <inkscape:path-effect
       is_visible="true"
       id="path-effect912"
       effect="spiro" />
    <inkscape:path-effect
       effect="spiro"
       id="path-effect916"
       is_visible="true" />
    <inkscape:path-effect
       is_visible="true"
       id="path-effect920"
       effect="spiro" />
  </defs>
  <sodipodi:namedview
     id="base"
     pagecolor="#ffffff"
     bordercolor="#666666"
     borderopacity="1.0"
     inkscape:pageopacity="0.0"
     inkscape:pageshadow="2"
     inkscape:zoom="1.4"
     inkscape:cx="357.70083"
     inkscape:cy="163.13989"
     inkscape:document-units="mm"
     inkscape:current-layer="layer1"
     showgrid="false"
     inkscape:window-width="1920"
     inkscape:window-height="1017"
     inkscape:window-x="-8"
     inkscape:window-y="-8"
     inkscape:window-maximized="1"
     units="px"
     inkscape:snap-bbox="true"
     inkscape:snap-bbox-midpoints="true"
     inkscape:snap-nodes="false"
     inkscape:snap-others="false"
     inkscape:snap-global="false" />
  <metadata
     id="metadata944">
    <rdf:RDF>
      <cc:Work
         rdf:about="">
        <dc:format>image/svg+xml</dc:format>
        <dc:type
           rdf:resource="http://purl.org/dc/dcmitype/StillImage" />
        <dc:title></dc:title>
      </cc:Work>
    </rdf:RDF>
  </metadata>
  <g
     inkscape:label="Layer 1"
     inkscape:groupmode="layer"
     id="layer1"
     transform="translate(0,-217.62498)">
    <g
       transform="matrix(1.1811816,0,0,1.1811816,-85.2481,98.586071)"
       id="g1658">
      <rect
         ry="1.3492576"
         y="132.62537"
         x="81.43734"
         height="28.819262"
         width="16.029137"
         id="rect835"
         style="fill:#17141f;fill-opacity:1;stroke:none;stroke-width:0.13510686;stroke-linejoin:round;stroke-miterlimit:4;stroke-dasharray:none;stroke-opacity:1" />
      <rect
         style="fill:#f4f4f4;fill-opacity:1;stroke:none;stroke-width:0.11886057;stroke-linejoin:round;stroke-miterlimit:4;stroke-dasharray:none;stroke-opacity:1"
         id="rect837"
         width="14.401371"
         height="24.826183"
         x="82.251228"
         y="133.53668"
         ry="1.16231" />
      <path
         inkscape:connector-curvature="0"
         id="rect1593"
         transform="scale(0.26458333)"
         d="m 394.53125,400.64453 c -4.11172,0 -7.42187,3.31016 -7.42187,7.42188 v 149.60937 c 0,4.11172 3.31015,7.42188 7.42187,7.42188 h 101.75781 v 41.21093 h -45.80078 c -1.62305,0 -2.92969,1.30664 -2.92969,2.92969 v 4.6875 c 0,1.62305 1.30664,2.92969 2.92969,2.92969 h 136.91406 c 1.62305,0 2.92969,-1.30664 2.92969,-2.92969 v -4.6875 c 0,-1.62305 -1.30664,-2.92969 -2.92969,-2.92969 h -45.80078 v -41.21093 h 101.75782 c 4.11171,0 7.42187,-3.31016 7.42187,-7.42188 V 408.06641 c 0,-4.11172 -3.31016,-7.42188 -7.42187,-7.42188 z"
         style="fill:#17141f;fill-opacity:1;stroke:none;stroke-width:1.00157475;stroke-linejoin:round;stroke-miterlimit:4;stroke-dasharray:none;stroke-opacity:1" />
      <rect
         style="fill:#f7f7f7;fill-opacity:0.98492462;stroke:none;stroke-width:0.23913802;stroke-linejoin:round;stroke-miterlimit:4;stroke-dasharray:none;stroke-opacity:1"
         id="rect1595"
         width="64.467377"
         height="38.343922"
         x="105.07059"
         y="108.58772"
         ry="1.7304859" />
      <g
         transform="translate(0,3.3072917)"
         id="g1631">
        <path
           sodipodi:nodetypes="cssssccc"
           inkscape:connector-curvature="0"
           id="path1605"
           d="m 93.426887,141.2927 c -0.808671,2.76757 -2.01877,5.03672 -4.489698,6.37503 -1.26251,0.6838 -2.652574,0.58222 -3.616536,-0.85734 -0.475453,-0.71004 -0.330337,-1.92589 0.286583,-2.55036 0.763109,-0.77244 1.604112,-1.12374 2.338389,-1.66001 0.869309,-0.63489 1.613207,-1.45166 2.245579,-2.4313 l 3.117003,0.28114 z"
           style="fill:#593196;fill-opacity:1;stroke:none;stroke-width:0.09536746px;stroke-linecap:butt;stroke-linejoin:miter;stroke-opacity:1" />
        <path
           sodipodi:nodetypes="ccccscscccccssscc"
           inkscape:connector-curvature="0"
           id="path1607"
           d="m 92.251822,136.55839 c -0.0635,0.77846 -0.0302,1.56409 -0.681196,2.29903 -0.626915,0.18332 -0.66542,0.35435 -0.825949,0.52793 -0.358626,0.51593 -0.934165,0.34286 -1.336851,0.26396 0.173752,0.38006 0.581284,0.69592 1.192093,0.6812 l 0.706744,-0.017 c 0.261052,0.32819 0.351044,0.60796 0.357628,0.86852 0.02049,0.81128 -0.838486,0.58015 -1.055854,0.83447 0.548346,0.0395 1.096605,0.0495 1.643385,-0.45129 0.04839,0.4542 -0.264107,0.72795 -0.519414,1.0303 0.792652,-0.32238 1.080984,-0.91984 1.387939,-1.50715 0.116619,0.33149 0.254389,0.6116 0.527927,0.56199 -0.252656,-0.39682 -0.1882,-0.94003 -0.255451,-1.46457 0,0 -0.135057,-0.43719 -0.272476,-0.61308 -0.145763,-0.18655 -0.385368,-0.70321 -0.221387,-1.4305 0.11424,-0.5067 -0.280998,-1.5327 -0.280998,-1.5327 -0.110359,-0.0568 -0.227572,-0.0902 -0.36614,-0.0511 z"
           style="fill:#17141f;fill-opacity:1;stroke:none;stroke-width:0.09536746px;stroke-linecap:butt;stroke-linejoin:miter;stroke-opacity:1" />
      </g>
      <path
         style="fill:#593196;fill-opacity:1;stroke:none;stroke-width:0.16514952px;stroke-linecap:butt;stroke-linejoin:miter;stroke-opacity:1"
         d="m 131.57759,123.3459 c -1.40039,4.79264 -3.49594,8.72217 -7.77489,11.03974 -2.18631,1.18416 -4.59351,1.00825 -6.26282,-1.48466 -0.82335,-1.22958 -0.57205,-3.3351 0.49628,-4.4165 1.32149,-1.33765 2.77787,-1.946 4.04943,-2.87467 1.5054,-1.09945 2.79362,-2.51386 3.88871,-4.21032 l 5.39777,0.48686 z"
         id="path1633"
         inkscape:connector-curvature="0"
         sodipodi:nodetypes="cssssccc" />
      <path
         style="fill:#17141f;fill-opacity:1;stroke:none;stroke-width:0.16514952px;stroke-linecap:butt;stroke-linejoin:miter;stroke-opacity:1"
         d="m 129.54271,115.1474 c -0.10997,1.34808 -0.0523,2.70857 -1.17964,3.98128 -1.08564,0.31747 -1.15232,0.61364 -1.43031,0.91422 -0.62104,0.89345 -1.61771,0.59375 -2.31505,0.45712 0.30089,0.65816 1.00662,1.20512 2.06437,1.17963 l 1.22388,-0.0295 c 0.45207,0.56834 0.60791,1.05282 0.61931,1.50405 0.0355,1.4049 -1.45202,1.00466 -1.82844,1.44506 0.94958,0.0684 1.89901,0.0857 2.84588,-0.78152 0.0838,0.78656 -0.45736,1.26062 -0.89948,1.78421 1.37265,-0.55827 1.87196,-1.59291 2.40352,-2.60995 0.20195,0.57404 0.44053,1.0591 0.91422,0.9732 -0.43753,-0.68718 -0.32591,-1.62788 -0.44237,-2.53623 0,0 -0.23388,-0.7571 -0.47185,-1.06167 -0.25242,-0.32306 -0.66735,-1.21778 -0.38338,-2.47724 0.19783,-0.87745 -0.48661,-2.65419 -0.48661,-2.65419 -0.19111,-0.0983 -0.39409,-0.15626 -0.63405,-0.0885 z"
         id="path1635"
         inkscape:connector-curvature="0"
         sodipodi:nodetypes="ccccscscccccssscc" />
      <text
         xml:space="preserve"
         style="font-style:normal;font-variant:normal;font-weight:normal;font-stretch:normal;font-size:12.64777946px;line-height:1.25;font-family:'Berlin Sans FB';-inkscape-font-specification:'Berlin Sans FB';letter-spacing:0px;word-spacing:0px;fill:#17141f;fill-opacity:1;stroke:none;stroke-width:0.31619447"
         x="129.77913"
         y="134.46404"
         id="text1639"><tspan
           sodipodi:role="line"
           id="tspan1637"
           x="129.77913"
           y="134.46404"
           style="font-style:normal;font-variant:normal;font-weight:normal;font-stretch:normal;font-family:'Berlin Sans FB';-inkscape-font-specification:'Berlin Sans FB';fill:#17141f;fill-opacity:1;stroke-width:0.31619447">#</tspan></text>
      <text
         xml:space="preserve"
         style="font-style:normal;font-variant:normal;font-weight:normal;font-stretch:normal;font-size:13.72631931px;line-height:1.25;font-family:'Berlin Sans FB';-inkscape-font-specification:'Berlin Sans FB';letter-spacing:0px;word-spacing:0px;fill:#593196;fill-opacity:1;stroke:none;stroke-width:0.34315795"
         x="138.78688"
         y="135.07385"
         id="text1643"><tspan
           sodipodi:role="line"
           id="tspan1641"
           x="138.78688"
           y="135.07385"
           style="font-style:normal;font-variant:normal;font-weight:normal;font-stretch:normal;font-family:'Berlin Sans FB';-inkscape-font-specification:'Berlin Sans FB';fill:#593196;fill-opacity:1;stroke-width:0.34315795">FIT</tspan></text>
    </g>
  </g>
</svg>
