<?xml version="1.0" encoding="UTF-8" standalone="no"?>
<!-- Created with Inkscape (http://www.inkscape.org/) -->

<svg
   xmlns:dc="http://purl.org/dc/elements/1.1/"
   xmlns:cc="http://creativecommons.org/ns#"
   xmlns:rdf="http://www.w3.org/1999/02/22-rdf-syntax-ns#"
   xmlns:svg="http://www.w3.org/2000/svg"
   xmlns="http://www.w3.org/2000/svg"
   xmlns:sodipodi="http://sodipodi.sourceforge.net/DTD/sodipodi-0.dtd"
   xmlns:inkscape="http://www.inkscape.org/namespaces/inkscape"
   width="400"
   height="300"
   viewBox="0 0 132.29166 79.375002"
   version="1.1"
   id="svg1486"
   inkscape:version="0.92.3 (2405546, 2018-03-11)"
   sodipodi:docname="diet_monitoring.svg">
  <defs
     id="defs1480" />
  <sodipodi:namedview
     id="base"
     pagecolor="#ffffff"
     bordercolor="#666666"
     borderopacity="1.0"
     inkscape:pageopacity="0.0"
     inkscape:pageshadow="2"
     inkscape:zoom="1.979899"
     inkscape:cx="243.03447"
     inkscape:cy="196.57681"
     inkscape:document-units="mm"
     inkscape:current-layer="layer1"
     showgrid="false"
     inkscape:window-width="1920"
     inkscape:window-height="1017"
     inkscape:window-x="-8"
     inkscape:window-y="-8"
     inkscape:window-maximized="1"
     units="px" />
  <metadata
     id="metadata1483">
    <rdf:RDF>
      <cc:Work
         rdf:about="">
        <dc:format>image/svg+xml</dc:format>
        <dc:type
           rdf:resource="http://purl.org/dc/dcmitype/StillImage" />
        <dc:title></dc:title>
      </cc:Work>
    </rdf:RDF>
  </metadata>
  <g
     inkscape:label="Layer 1"
     inkscape:groupmode="layer"
     id="layer1"
     transform="translate(0,-217.62499)">
    <g
       id="g2079"
       transform="matrix(1.3746352,0,0,1.3746352,-6.1949085,-123.11086)">
      <path
         sodipodi:nodetypes="cssssccc"
         inkscape:connector-curvature="0"
         id="path1450"
         d="m 20.644069,273.37996 c 13.557942,8.24299 26.896871,12.97092 41.903554,9.23713 7.667572,-1.90776 12.938318,-7.47997 11.511658,-16.90676 -0.703667,-4.64956 -5.806146,-9.05092 -10.630469,-9.29828 -5.967558,-0.30599 -10.688428,1.38823 -15.66223,1.9348 -5.888482,0.64707 -11.942482,0.0897 -18.147903,-1.54338 l -11.620735,12.7116 z"
         style="fill:#17141f;fill-opacity:1;stroke:none;stroke-width:0.52481765px;stroke-linecap:butt;stroke-linejoin:miter;stroke-opacity:1" />
      <path
         sodipodi:nodetypes="ccccscscccccssscc"
         inkscape:connector-curvature="0"
         id="path1452"
         d="m 7.8460328,249.78317 c 3.1474122,2.92715 5.9281192,6.24274 11.3009702,6.81251 3.227575,-1.58207 4.018813,-1.03012 5.315294,-0.92072 3.372048,0.76509 5.06808,-2.07427 6.411324,-3.88949 0.70473,2.1891 0.22128,4.98501 -2.315045,7.19234 l -2.934676,2.55402 c 0.157498,2.30238 0.830275,3.77308 1.770667,4.85619 2.927914,3.37227 5.560074,-0.75506 7.387165,-0.5286 -2.081371,2.1957 -4.271711,4.27139 -8.352066,4.26615 1.489247,2.02502 3.775005,1.97738 5.934545,2.2582 -4.417084,1.63226 -7.806165,0.27498 -11.233195,-0.97189 0.756557,1.77967 1.23646,3.42909 -0.05902,4.24283 -0.446347,-2.55005 -2.724477,-4.51788 -4.398138,-6.89865 0,0 -1.074006,-2.2776 -1.168492,-3.50224 -0.100222,-1.299 -1.044401,-4.28753 -4.410121,-6.63384 -2.3448332,-1.63465 -4.5471822,-7.27023 -4.5471822,-7.27023 0.237713,-0.64023 0.589706,-1.21128 1.297988,-1.56656 z"
         style="fill:#593196;fill-opacity:1;stroke:none;stroke-width:0.52481765px;stroke-linecap:butt;stroke-linejoin:miter;stroke-opacity:1" />
      <g
         transform="matrix(1.3327497,1.7181917,-1.7181917,1.3327497,130.24505,84.307572)"
         id="g1448">
        <path
           sodipodi:nodetypes="cssssccc"
           inkscape:connector-curvature="0"
           id="path1442"
           d="m 57.510765,72.722994 c -1.40039,4.792649 -3.49594,8.72217 -7.77489,11.039749 -2.18631,1.184156 -4.59351,1.008242 -6.26282,-1.484668 -0.82335,-1.229574 -0.57205,-3.335098 0.49628,-4.416494 1.32149,-1.337652 2.77787,-1.946004 4.04943,-2.874671 1.5054,-1.099452 2.79362,-2.51386 3.88871,-4.210322 l 5.39777,0.486863 z"
           style="fill:#593196;fill-opacity:1;stroke:none;stroke-width:0.16514952px;stroke-linecap:butt;stroke-linejoin:miter;stroke-opacity:1" />
        <path
           sodipodi:nodetypes="ccccscscccccssscc"
           inkscape:connector-curvature="0"
           id="path1444"
           d="m 55.475885,64.524499 c -0.10997,1.348075 -0.0523,2.708565 -1.17964,3.981283 -1.08564,0.317467 -1.15232,0.613636 -1.43031,0.914221 -0.62104,0.893442 -1.61771,0.593746 -2.31505,0.457111 0.30089,0.658166 1.00662,1.205128 2.06437,1.179639 l 1.22388,-0.02949 c 0.45207,0.568338 0.60791,1.052814 0.61931,1.504042 0.0355,1.404904 -1.45202,1.00466 -1.82844,1.445059 0.94958,0.06837 1.89901,0.08573 2.84588,-0.781511 0.0838,0.786551 -0.45736,1.260618 -0.89948,1.784205 1.37265,-0.55827 1.87196,-1.59291 2.40352,-2.609953 0.20195,0.57404 0.44053,1.059103 0.91422,0.973203 -0.43753,-0.687184 -0.32591,-1.627882 -0.44237,-2.536225 0,0 -0.23388,-0.757101 -0.47185,-1.061676 -0.25242,-0.323063 -0.66735,-1.217782 -0.38338,-2.477243 0.19783,-0.877449 -0.48661,-2.654189 -0.48661,-2.654189 -0.19111,-0.09829 -0.39409,-0.156255 -0.63405,-0.08847 z"
           style="fill:#17141f;fill-opacity:1;stroke:none;stroke-width:0.16514952px;stroke-linecap:butt;stroke-linejoin:miter;stroke-opacity:1" />
      </g>
      <path
         sodipodi:nodetypes="ccc"
         inkscape:connector-curvature="0"
         id="path1458"
         d="m 10.466934,283.41411 c 28.535937,6.60972 57.769609,5.77699 87.466807,0 z"
         style="fill:#17141f;fill-opacity:1;stroke:#17141f;stroke-width:0.57623971;stroke-linecap:butt;stroke-linejoin:round;stroke-miterlimit:4;stroke-dasharray:none;stroke-opacity:1" />
      <path
         sodipodi:nodetypes="ccccccc"
         style="fill:#17141f;fill-opacity:1;stroke:none;stroke-width:0.45134971px;stroke-linecap:butt;stroke-linejoin:miter;stroke-opacity:1"
         d="m 48.07044,286.70858 c 0.008,2.22771 -0.356168,4.2079 -1.709748,5.52817 -17.394884,6.55737 -18.654627,9.08369 -18.465244,12.42417 h 26.304846 26.304885 c 0.189402,-3.34048 -1.070369,-5.8668 -18.465254,-12.42417 -1.353601,-1.32027 -1.716591,-3.30046 -1.709762,-5.52817 z"
         id="path1464"
         inkscape:connector-curvature="0" />
      <circle
         r="4.8286886"
         cy="297.48938"
         cx="54.20031"
         id="path1472"
         style="fill:#ffffff;fill-opacity:1;stroke:none;stroke-width:0.84635121;stroke-linejoin:round;stroke-miterlimit:4;stroke-dasharray:none;stroke-opacity:1" />
      <path
         inkscape:transform-center-y="-2.2160036"
         inkscape:transform-center-x="0.1558093"
         sodipodi:nodetypes="scsss"
         inkscape:connector-curvature="0"
         id="path1474"
         d="m 53.491864,298.19881 c -0.02479,-1.39086 -0.183862,-2.54706 -0.24076,-3.77527 0.48651,1.12918 0.849609,2.23836 1.436208,3.49972 0.450332,0.9683 0.254702,1.52302 -0.251507,1.63971 -0.506212,0.11668 -0.924941,-0.29641 -0.943941,-1.36416 z"
         style="fill:#593196;fill-opacity:1;stroke:none;stroke-width:0.32139161px;stroke-linecap:butt;stroke-linejoin:miter;stroke-opacity:1" />
    </g>
  </g>
</svg>
