<?xml version="1.0" encoding="UTF-8" standalone="no"?>
<!-- Created with Inkscape (http://www.inkscape.org/) -->

<svg
   xmlns:dc="http://purl.org/dc/elements/1.1/"
   xmlns:cc="http://creativecommons.org/ns#"
   xmlns:rdf="http://www.w3.org/1999/02/22-rdf-syntax-ns#"
   xmlns:svg="http://www.w3.org/2000/svg"
   xmlns="http://www.w3.org/2000/svg"
   xmlns:sodipodi="http://sodipodi.sourceforge.net/DTD/sodipodi-0.dtd"
   xmlns:inkscape="http://www.inkscape.org/namespaces/inkscape"
   width="500"
   height="300"
   viewBox="0 0 132.29166 79.375005"
   version="1.1"
   id="svg947"
   inkscape:version="0.92.3 (2405546, 2018-03-11)"
   sodipodi:docname="training_monitoring.svg">
  <defs
     id="defs941">
    <inkscape:path-effect
       effect="spiro"
       id="path-effect837"
       is_visible="true" />
    <inkscape:path-effect
       effect="spiro"
       id="path-effect881"
       is_visible="true" />
    <inkscape:path-effect
       effect="spiro"
       id="path-effect895"
       is_visible="true" />
    <inkscape:path-effect
       is_visible="true"
       id="path-effect899"
       effect="spiro" />
    <inkscape:path-effect
       effect="spiro"
       id="path-effect904"
       is_visible="true" />
    <inkscape:path-effect
       is_visible="true"
       id="path-effect912"
       effect="spiro" />
    <inkscape:path-effect
       effect="spiro"
       id="path-effect916"
       is_visible="true" />
    <inkscape:path-effect
       is_visible="true"
       id="path-effect920"
       effect="spiro" />
  </defs>
  <sodipodi:namedview
     id="base"
     pagecolor="#ffffff"
     bordercolor="#666666"
     borderopacity="1.0"
     inkscape:pageopacity="0.0"
     inkscape:pageshadow="2"
     inkscape:zoom="0.9899495"
     inkscape:cx="561.39786"
     inkscape:cy="270.66183"
     inkscape:document-units="mm"
     inkscape:current-layer="g939"
     showgrid="false"
     inkscape:window-width="1920"
     inkscape:window-height="1017"
     inkscape:window-x="-8"
     inkscape:window-y="-8"
     inkscape:window-maximized="1"
     units="px" />
  <metadata
     id="metadata944">
    <rdf:RDF>
      <cc:Work
         rdf:about="">
        <dc:format>image/svg+xml</dc:format>
        <dc:type
           rdf:resource="http://purl.org/dc/dcmitype/StillImage" />
        <dc:title />
      </cc:Work>
    </rdf:RDF>
  </metadata>
  <g
     inkscape:label="Layer 1"
     inkscape:groupmode="layer"
     id="layer1"
     transform="translate(0,-217.62498)">
    <g
       transform="matrix(1.5491759,0,0,1.5491759,-375.04019,-116.94431)"
       id="g939">
      <path
         style="fill:#593196;fill-opacity:1;stroke:none;stroke-width:2.10267854px;stroke-linecap:butt;stroke-linejoin:miter;stroke-opacity:1"
         d="M 278.98828 69.623047 L 218.26367 102.39453 C 218.56287 128.10129 214.8293 152.17275 206.57617 174.42578 C 199.60503 193.22211 188.42143 209.91719 183.79492 233.40625 C 180.05477 252.39551 192.18517 276.51358 209.56836 283.7793 C 244.81211 298.51016 271.60208 283.45591 286.48828 255.51758 C 315.62288 200.83789 310.25067 144.39332 291.42969 83.671875 L 278.98828 69.623047 z "
         transform="matrix(0.17078973,0,0,0.17078973,242.09013,215.96598)"
         id="path2081" />
      <path
         sodipodi:nodetypes="ccccscscccccssscc"
         inkscape:connector-curvature="0"
         id="path2083"
         d="m 278.33178,217.83475 c 1.41895,2.57619 3.15674,4.97363 2.64065,8.63452 -1.58725,1.87888 -1.3526,2.4959 -1.49577,3.37461 -0.0535,2.36542 -2.22027,3.01853 -3.64863,3.60793 1.33565,0.8321 3.27181,0.97658 5.159,-0.33944 l 2.18359,-1.5227 c 1.50192,0.48774 2.36607,1.17906 2.92842,1.98348 1.75092,2.50459 -1.42656,3.56465 -1.58035,4.81501 1.80374,-1.01599 3.54598,-2.12428 4.22163,-4.83335 1.09617,1.32548 0.68411,2.83465 0.51106,4.31471 1.81854,-2.66002 1.48177,-5.13531 1.2246,-7.61742 1.05527,0.79835 2.07014,1.3914 2.82586,0.667 -1.61823,-0.72068 -2.54513,-2.56024 -3.84673,-4.06733 0,0 -1.33292,-1.09192 -2.13002,-1.35846 -0.84548,-0.28272 -2.67187,-1.4068 -3.66896,-4.03121 -0.69467,-1.82837 -4.06855,-4.2281 -4.06855,-4.2281 -0.46449,0.0512 -0.9021,0.18979 -1.25579,0.60076 z"
         style="fill:#17141f;fill-opacity:1;stroke:none;stroke-width:0.3591159px;stroke-linecap:butt;stroke-linejoin:miter;stroke-opacity:1" />
      <path
         sodipodi:nodetypes="cccccccccsccc"
         inkscape:connector-curvature="0"
         id="path870"
         d="m 300.577,246.06973 c -0.4876,0.004 -1.03262,0.58681 -1.48104,0.82734 0.0497,0.89145 -0.0206,1.71179 -0.2248,2.45308 -0.0271,0.0984 -0.061,0.19297 -0.093,0.28836 -0.51976,-0.63723 -0.99972,-1.47412 -1.75234,-1.87431 -0.8638,-0.58799 -2.37969,-0.0528 -3.54242,-0.6227 -0.93998,-0.46077 -1.989,-0.57996 -2.73214,0.003 -1.50672,1.1815 -1.24701,2.50815 -0.0553,3.56464 2.33235,2.06771 5.46242,2.77238 9.09557,3.00395 0.43428,-0.0682 0.66342,-0.2563 0.85938,-0.42271 0.25205,-0.21405 0.51009,-0.46423 0.67179,-0.84543 0.75924,-1.78986 0.513,-3.76418 -0.13074,-5.93452 -0.18341,-0.3243 -0.39331,-0.44205 -0.61495,-0.44029 z"
         style="fill:#593196;fill-opacity:1;stroke:none;stroke-width:0.10495822px;stroke-linecap:butt;stroke-linejoin:miter;stroke-opacity:1" />
      <path
         sodipodi:nodetypes="cccsscccccccc"
         inkscape:connector-curvature="0"
         id="path872"
         d="m 270.20624,242.63273 c -0.16708,-0.002 -0.32526,0.0984 -0.46353,0.37259 -0.48531,1.8349 -0.67109,3.50404 -0.0987,5.01726 0.15277,0.40389 0.2639,0.70535 0.54828,0.8413 0.11839,0.0566 0.35704,0.15179 0.5395,0.17622 2.86842,0.38404 5.41678,0.24974 7.51893,-1.03147 1.0741,-0.65462 1.45509,-1.656 0.43511,-2.80086 -0.50309,-0.5647 -1.6931,-0.86365 -2.49029,-0.63924 -0.98608,0.27758 -1.60384,0.74797 -2.35851,1.08314 -0.63176,0.28057 -1.32882,0.48624 -2.08359,0.62529 -0.0887,-0.29964 -0.18898,-0.5752 -0.26148,-0.87024 -0.15398,-0.62672 -0.20646,-1.32009 -0.16899,-2.07377 -0.33806,-0.20338 -0.74913,-0.69694 -1.11673,-0.70022 z"
         style="fill:#593196;fill-opacity:1;stroke:none;stroke-width:0.08347331px;stroke-linecap:butt;stroke-linejoin:miter;stroke-opacity:1" />
      <path
         sodipodi:nodetypes="cscccscccccccccc"
         inkscape:connector-curvature="0"
         id="path884"
         d="m 295.94745,238.88057 c 0,0 -0.64991,0.95039 -2.51367,4.21768 -0.79219,1.38875 -1.99105,4.36347 -1.99105,4.36347 0.25017,0.14997 1.73147,1.17736 2.19474,0.98038 0.5157,-0.21928 0.82307,-1.31261 2.17115,-2.51152 1.32033,0.69127 4.35246,1.76495 6.31443,2.45933 0.89855,0.31802 1.04119,0.24674 1.19387,0.71177 -0.21293,1.79147 -0.93423,2.66844 -0.8193,3.21692 0.10324,0.4927 1.85121,1.15407 2.11728,1.27359 0,0 1.75534,-2.68451 2.44184,-4.12843 1.61509,-3.3971 2.02348,-4.47363 2.02348,-4.47363 -0.30043,-0.17821 -1.67557,-1.21968 -2.30945,-0.78929 -0.8046,0.54632 -1.01893,1.34586 -2.12318,2.33705 -2.1222,-0.37497 -6.81048,-1.66416 -7.49651,-3.16466 0.18191,-1.47267 0.7153,-2.10563 0.70353,-3.0781 -0.009,-0.76613 -1.58919,-1.26997 -1.90716,-1.41456 z"
         style="fill:#17141f;fill-opacity:1;stroke:none;stroke-width:0.08314853px;stroke-linecap:butt;stroke-linejoin:miter;stroke-opacity:1" />
      <path
         inkscape:original-d="m 300.10294,245.53386 c -0.007,-0.36202 0.0514,-0.82621 -0.14503,-1.0244 -0.75831,-0.76516 -1.94283,0.78355 -1.45032,1.28049 0.0707,0.0714 0.71276,0.63447 0.97896,0.36587 0.0952,-0.096 0.10314,-0.32359 0.21755,-0.43903 0.13107,-0.13225 0.47441,0.12205 0.39884,-0.18293 z"
         inkscape:path-effect="#path-effect895"
         inkscape:connector-curvature="0"
         id="path893"
         d="m 300.10294,245.53386 c 0.0987,-0.15905 0.13954,-0.35317 0.1133,-0.53851 -0.0262,-0.18534 -0.11936,-0.36049 -0.25833,-0.48589 -0.16476,-0.14867 -0.39117,-0.22451 -0.61279,-0.21296 -0.22161,0.0115 -0.43637,0.10856 -0.59718,0.26148 -0.16082,0.15293 -0.26772,0.35977 -0.30751,0.57809 -0.0398,0.21832 -0.0135,0.44714 0.0672,0.65388 0.0383,0.0982 0.0889,0.19205 0.15553,0.27365 0.0666,0.0816 0.14969,0.15072 0.24523,0.19511 0.0955,0.0444 0.20381,0.0633 0.30791,0.0471 0.1041,-0.0162 0.20334,-0.0687 0.27029,-0.15 0.0521,-0.0633 0.0832,-0.14089 0.11228,-0.21756 0.029,-0.0767 0.0574,-0.15489 0.10527,-0.22147 0.0446,-0.0621 0.10567,-0.11236 0.17521,-0.14425 0.0695,-0.0319 0.14742,-0.0454 0.22363,-0.0387 z"
         style="fill:#593196;fill-opacity:1;stroke:none;stroke-width:0.37295622px;stroke-linecap:butt;stroke-linejoin:miter;stroke-opacity:1" />
      <path
         style="fill:#593196;fill-opacity:1;stroke:none;stroke-width:0.37295622px;stroke-linecap:butt;stroke-linejoin:miter;stroke-opacity:1"
         d="m 301.18814,245.50802 c 0.0987,-0.15905 0.13954,-0.35317 0.1133,-0.53851 -0.0262,-0.18534 -0.11936,-0.36049 -0.25833,-0.48589 -0.16476,-0.14867 -0.39117,-0.22451 -0.61279,-0.21296 -0.22161,0.0115 -0.43637,0.10856 -0.59718,0.26148 -0.16082,0.15293 -0.26772,0.35977 -0.30751,0.57809 -0.0398,0.21832 -0.0135,0.44714 0.0672,0.65388 0.0383,0.0982 0.0889,0.19205 0.15553,0.27365 0.0666,0.0816 0.14969,0.15072 0.24523,0.19511 0.0955,0.0444 0.20381,0.0633 0.30791,0.0471 0.1041,-0.0162 0.20334,-0.0687 0.27029,-0.15 0.0521,-0.0633 0.0832,-0.14089 0.11228,-0.21756 0.029,-0.0767 0.0574,-0.15489 0.10527,-0.22147 0.0446,-0.0621 0.10567,-0.11236 0.17521,-0.14425 0.0695,-0.0319 0.14742,-0.0454 0.22363,-0.0387 z"
         id="path897"
         inkscape:connector-curvature="0"
         inkscape:path-effect="#path-effect899"
         inkscape:original-d="m 301.18814,245.50802 c -0.007,-0.36202 0.0514,-0.82621 -0.14503,-1.0244 -0.75831,-0.76516 -1.94283,0.78355 -1.45032,1.28049 0.0707,0.0714 0.71276,0.63447 0.97896,0.36587 0.0952,-0.096 0.10314,-0.32359 0.21755,-0.43903 0.13107,-0.13225 0.47441,0.12205 0.39884,-0.18293 z" />
      <path
         inkscape:original-d="m 302.11831,245.99895 c -0.007,-0.36202 0.0514,-0.82621 -0.14503,-1.0244 -0.75831,-0.76516 -1.94283,0.78355 -1.45032,1.28049 0.0707,0.0714 0.71276,0.63447 0.97896,0.36587 0.0952,-0.096 0.10314,-0.32359 0.21755,-0.43903 0.13107,-0.13225 0.47441,0.12205 0.39884,-0.18293 z"
         inkscape:path-effect="#path-effect904"
         inkscape:connector-curvature="0"
         id="path902"
         d="m 302.11831,245.99895 c 0.0987,-0.15905 0.13954,-0.35317 0.1133,-0.53851 -0.0262,-0.18534 -0.11936,-0.36049 -0.25833,-0.48589 -0.16476,-0.14867 -0.39117,-0.22451 -0.61279,-0.21296 -0.22161,0.0115 -0.43637,0.10856 -0.59718,0.26148 -0.16082,0.15293 -0.26772,0.35977 -0.30751,0.57809 -0.0398,0.21832 -0.0135,0.44714 0.0672,0.65388 0.0383,0.0982 0.0889,0.19205 0.15553,0.27365 0.0666,0.0816 0.14969,0.15072 0.24523,0.19511 0.0955,0.0444 0.20381,0.0633 0.30791,0.0471 0.1041,-0.0162 0.20334,-0.0687 0.27029,-0.15 0.0521,-0.0633 0.0832,-0.14089 0.11228,-0.21756 0.0291,-0.0767 0.0574,-0.15489 0.10527,-0.22147 0.0446,-0.0621 0.10567,-0.11236 0.17521,-0.14425 0.0695,-0.0319 0.14742,-0.0454 0.22363,-0.0387 z"
         style="fill:#593196;fill-opacity:1;stroke:none;stroke-width:0.37295622px;stroke-linecap:butt;stroke-linejoin:miter;stroke-opacity:1" />
      <path
         style="fill:#17141f;fill-opacity:1;stroke:none;stroke-width:0.06638198px;stroke-linecap:butt;stroke-linejoin:miter;stroke-opacity:1"
         d="m 273.69646,236.55513 c 0,0 0.48996,0.8035 1.89502,3.56582 0.59722,1.17411 1.50103,3.68907 1.50103,3.68907 -0.1886,0.12679 -1.30533,0.99539 -1.65458,0.82886 -0.38878,-0.18539 -0.62051,-1.10974 -1.63681,-2.12336 -0.99538,0.58443 -3.28126,1.49217 -4.76036,2.07923 -0.67741,0.26887 -0.78494,0.20861 -0.90004,0.60176 0.16052,1.51459 0.7043,2.25602 0.61766,2.71973 -0.0778,0.41655 -1.39561,0.9757 -1.59619,1.07675 0,0 -1.32333,-2.2696 -1.84087,-3.49036 -1.2176,-2.87206 -1.52548,-3.7822 -1.52548,-3.7822 0.22649,-0.15067 1.26319,-1.03118 1.74106,-0.6673 0.60658,0.46188 0.76816,1.13785 1.60064,1.97584 1.5999,-0.31701 5.13433,-1.40695 5.65152,-2.67554 -0.13714,-1.24506 -0.53925,-1.7802 -0.53038,-2.60237 0.007,-0.64772 1.19807,-1.07368 1.43778,-1.19593 z"
         id="path908"
         inkscape:connector-curvature="0"
         sodipodi:nodetypes="cscccscccccccccc" />
      <path
         style="fill:#593196;fill-opacity:1;stroke:none;stroke-width:0.29775113px;stroke-linecap:butt;stroke-linejoin:miter;stroke-opacity:1"
         d="m 270.56369,242.18012 c -0.0997,-0.12741 -0.14602,-0.2953 -0.12576,-0.45581 0.0203,-0.16051 0.10686,-0.31163 0.2351,-0.41026 0.13649,-0.10498 0.31672,-0.14862 0.48733,-0.12534 0.17061,0.0233 0.33024,0.11153 0.44662,0.23844 0.11638,0.12691 0.1899,0.29094 0.21517,0.46126 0.0253,0.17032 0.003,0.34643 -0.0557,0.50822 -0.0278,0.0762 -0.0638,0.14983 -0.11217,0.21493 -0.0484,0.0651 -0.1094,0.12155 -0.18116,0.15933 -0.0718,0.0378 -0.15453,0.0562 -0.23504,0.0465 -0.0805,-0.01 -0.15818,-0.0488 -0.20966,-0.11142 -0.0432,-0.0525 -0.0663,-0.11828 -0.0869,-0.18308 -0.0206,-0.0648 -0.0399,-0.13117 -0.0771,-0.18809 -0.0322,-0.0494 -0.0775,-0.0901 -0.12989,-0.11709 -0.0524,-0.027 -0.1119,-0.04 -0.17079,-0.0376 z"
         id="path910"
         inkscape:connector-curvature="0"
         inkscape:path-effect="#path-effect912"
         inkscape:original-d="m 270.56369,242.18012 c 0.005,-0.30607 -0.0387,-0.69851 0.10934,-0.86607 0.57168,-0.6469 1.46467,0.66244 1.09338,1.08258 -0.0533,0.0604 -0.53734,0.53641 -0.73803,0.30932 -0.0718,-0.0812 -0.0778,-0.27357 -0.16401,-0.37117 -0.0988,-0.11181 -0.35765,0.10318 -0.30068,-0.15466 z" />
      <path
         inkscape:original-d="m 269.74558,242.15827 c 0.005,-0.30606 -0.0387,-0.69851 0.10933,-0.86607 0.57168,-0.6469 1.46468,0.66245 1.09338,1.08258 -0.0533,0.0604 -0.53734,0.53641 -0.73803,0.30933 -0.0718,-0.0812 -0.0778,-0.27358 -0.164,-0.37118 -0.0988,-0.11181 -0.35766,0.10319 -0.30068,-0.15466 z"
         inkscape:path-effect="#path-effect916"
         inkscape:connector-curvature="0"
         id="path914"
         d="m 269.74558,242.15827 c -0.0997,-0.12741 -0.14603,-0.2953 -0.12577,-0.45581 0.0203,-0.16051 0.10686,-0.31163 0.2351,-0.41026 0.13649,-0.10498 0.31672,-0.14862 0.48733,-0.12534 0.1706,0.0233 0.33024,0.11154 0.44661,0.23845 0.11638,0.1269 0.1899,0.29093 0.21518,0.46125 0.0253,0.17032 0.003,0.34643 -0.0557,0.50822 -0.0278,0.0762 -0.0638,0.14983 -0.11216,0.21493 -0.0484,0.0651 -0.10941,0.12156 -0.18117,0.15934 -0.0718,0.0378 -0.15453,0.0562 -0.23504,0.0465 -0.0805,-0.01 -0.15818,-0.0488 -0.20966,-0.11143 -0.0432,-0.0525 -0.0663,-0.11829 -0.0869,-0.18308 -0.0206,-0.0648 -0.0399,-0.13118 -0.0771,-0.1881 -0.0322,-0.0494 -0.0775,-0.0901 -0.12989,-0.11709 -0.0524,-0.027 -0.1119,-0.0401 -0.17079,-0.0376 z"
         style="fill:#593196;fill-opacity:1;stroke:none;stroke-width:0.29775113px;stroke-linecap:butt;stroke-linejoin:miter;stroke-opacity:1" />
      <path
         style="fill:#593196;fill-opacity:1;stroke:none;stroke-width:0.29775113px;stroke-linecap:butt;stroke-linejoin:miter;stroke-opacity:1"
         d="m 269.04433,242.57333 c -0.0997,-0.12741 -0.14603,-0.29531 -0.12576,-0.45582 0.0203,-0.16051 0.10686,-0.31163 0.2351,-0.41026 0.13649,-0.10498 0.31672,-0.14862 0.48733,-0.12534 0.17061,0.0233 0.33025,0.11154 0.44662,0.23845 0.11638,0.12691 0.1899,0.29093 0.21517,0.46126 0.0253,0.17032 0.003,0.34643 -0.0557,0.50822 -0.0278,0.0762 -0.0638,0.14983 -0.11217,0.21493 -0.0484,0.0651 -0.1094,0.12155 -0.18116,0.15933 -0.0718,0.0378 -0.15453,0.0562 -0.23504,0.0465 -0.0805,-0.01 -0.15818,-0.0488 -0.20966,-0.11143 -0.0432,-0.0525 -0.0663,-0.11829 -0.0869,-0.18308 -0.0206,-0.0648 -0.0399,-0.13118 -0.0771,-0.1881 -0.0322,-0.0494 -0.0775,-0.0901 -0.12989,-0.11708 -0.0524,-0.027 -0.1119,-0.04 -0.17079,-0.0376 z"
         id="path918"
         inkscape:connector-curvature="0"
         inkscape:path-effect="#path-effect920"
         inkscape:original-d="m 269.04433,242.57333 c 0.005,-0.30607 -0.0387,-0.69852 0.10934,-0.86608 0.57168,-0.6469 1.46467,0.66245 1.09338,1.08259 -0.0533,0.0604 -0.53734,0.53641 -0.73803,0.30932 -0.0718,-0.0812 -0.0778,-0.27358 -0.16401,-0.37118 -0.0988,-0.11181 -0.35765,0.10319 -0.30068,-0.15465 z" />
    </g>
  </g>
</svg>
