<?xml version="1.0" encoding="UTF-8" standalone="no"?>
<!-- Created with Inkscape (http://www.inkscape.org/) -->

<svg
   xmlns:dc="http://purl.org/dc/elements/1.1/"
   xmlns:cc="http://creativecommons.org/ns#"
   xmlns:rdf="http://www.w3.org/1999/02/22-rdf-syntax-ns#"
   xmlns:svg="http://www.w3.org/2000/svg"
   xmlns="http://www.w3.org/2000/svg"
   xmlns:sodipodi="http://sodipodi.sourceforge.net/DTD/sodipodi-0.dtd"
   xmlns:inkscape="http://www.inkscape.org/namespaces/inkscape"
   width="200"
   height="100"
   viewBox="0 0 52.916665 26.458334"
   version="1.1"
   id="svg859"
   inkscape:version="0.92.3 (2405546, 2018-03-11)"
   sodipodi:docname="white_background.svg">
  <defs
     id="defs853" />
  <sodipodi:namedview
     id="base"
     pagecolor="#ffffff"
     bordercolor="#666666"
     borderopacity="1.0"
     inkscape:pageopacity="0.0"
     inkscape:pageshadow="2"
     inkscape:zoom="3.959798"
     inkscape:cx="107.75351"
     inkscape:cy="45.107507"
     inkscape:document-units="mm"
     inkscape:current-layer="g1440"
     showgrid="false"
     inkscape:window-width="1920"
     inkscape:window-height="1017"
     inkscape:window-x="-8"
     inkscape:window-y="-8"
     inkscape:window-maximized="1"
     units="px" />
  <metadata
     id="metadata856">
    <rdf:RDF>
      <cc:Work
         rdf:about="">
        <dc:format>image/svg+xml</dc:format>
        <dc:type
           rdf:resource="http://purl.org/dc/dcmitype/StillImage" />
        <dc:title></dc:title>
      </cc:Work>
    </rdf:RDF>
  </metadata>
  <g
     inkscape:label="Layer 1"
     inkscape:groupmode="layer"
     id="layer1"
     transform="translate(0,-270.54165)">
    <g
       id="g1440"
       transform="matrix(1.0189671,0,0,1.0189671,-1.5587343,-5.5226808)">
      <path
         sodipodi:nodetypes="cssssccc"
         inkscape:connector-curvature="0"
         id="path837"
         d="m 21.485195,281.50323 c -1.74628,5.97642 -4.359423,10.87652 -9.695256,13.76652 -2.72632,1.47663 -5.728089,1.25727 -7.8097119,-1.85137 -1.0267143,-1.53327 -0.7133442,-4.15885 0.6188591,-5.50734 1.6478929,-1.66807 3.463993,-2.42667 5.0496233,-3.58471 1.8772275,-1.37102 3.4836325,-3.13477 4.8492055,-5.25027 l 6.730998,0.60713 z"
         style="fill:#593196;fill-opacity:1;stroke:none;stroke-width:0.20594081px;stroke-linecap:butt;stroke-linejoin:miter;stroke-opacity:1" />
      <path
         sodipodi:nodetypes="ccccscscccccsssccc"
         inkscape:connector-curvature="0"
         id="path839"
         d="m 18.947708,271.27973 c -0.137133,1.68105 -0.06521,3.37758 -1.471007,4.96465 -1.353788,0.39588 -1.436938,0.7652 -1.78359,1.14004 -0.774435,1.11411 -2.017278,0.74038 -2.886858,0.57001 0.375208,0.82074 1.25525,1.50279 2.574261,1.471 l 1.526173,-0.0368 c 0.563729,0.70871 0.758062,1.31285 0.772277,1.87553 0.04427,1.75191 -1.810663,1.25281 -2.280057,1.80198 1.184122,0.0853 2.368058,0.10687 3.548801,-0.97453 0.104494,0.98083 -0.570326,1.57198 -1.121648,2.22489 1.711689,-0.69616 2.334327,-1.98636 2.99718,-3.2546 0.251831,0.71583 0.54934,1.32069 1.140028,1.21358 -0.545597,-0.85691 -0.406408,-1.85609 -0.551632,-2.98878 -0.06141,-0.479 -0.291648,-1.11799 -0.588396,-1.49779 -0.314766,-0.40286 -0.832182,-1.51857 -0.478074,-3.08911 0.246694,-1.09417 -0.6068,-3.30977 -0.6068,-3.30977 -0.238314,-0.12258 -0.491429,-0.19483 -0.790658,-0.11035 z"
         style="fill:#17141f;fill-opacity:1;stroke:none;stroke-width:0.20594081px;stroke-linecap:butt;stroke-linejoin:miter;stroke-opacity:1" />
      <text
         id="text861"
         y="295.36749"
         x="19.242514"
         style="font-style:normal;font-variant:normal;font-weight:normal;font-stretch:normal;font-size:15.77173138px;line-height:1.25;font-family:'Berlin Sans FB';-inkscape-font-specification:'Berlin Sans FB';letter-spacing:0px;word-spacing:0px;fill:#17141f;fill-opacity:1;stroke:none;stroke-width:0.39429325"
         xml:space="preserve"><tspan
           style="font-style:normal;font-variant:normal;font-weight:normal;font-stretch:normal;font-family:'Berlin Sans FB';-inkscape-font-specification:'Berlin Sans FB';fill:#17141f;fill-opacity:1;stroke-width:0.39429325"
           y="295.36749"
           x="19.242514"
           id="tspan859"
           sodipodi:role="line">#</tspan></text>
      <text
         id="text865"
         y="296.12796"
         x="30.475145"
         style="font-style:normal;font-variant:normal;font-weight:normal;font-stretch:normal;font-size:17.11666679px;line-height:1.25;font-family:'Berlin Sans FB';-inkscape-font-specification:'Berlin Sans FB';letter-spacing:0px;word-spacing:0px;fill:#593196;fill-opacity:1;stroke:none;stroke-width:0.42791662"
         xml:space="preserve"><tspan
           style="font-style:normal;font-variant:normal;font-weight:normal;font-stretch:normal;font-family:'Berlin Sans FB';-inkscape-font-specification:'Berlin Sans FB';fill:#593196;fill-opacity:1;stroke-width:0.42791662"
           y="296.12796"
           x="30.475145"
           id="tspan863"
           sodipodi:role="line">FIT</tspan></text>
    </g>
  </g>
</svg>
